<svg width="384" height="384" viewBox="0 0 384 384" fill="none" xmlns="http://www.w3.org/2000/svg">
<rect width="384" height="384" fill="white"/>
<mask id="mask0_2605_2781" style="mask-type:luminance" maskUnits="userSpaceOnUse" x="132" y="93" width="120" height="120">
<path d="M252 93H132V213H252V93Z" fill="white"/>
</mask>
<g mask="url(#mask0_2605_2781)">
<path d="M183.6 114.89C186.225 113.645 189.095 112.999 192 112.999C194.906 112.999 197.775 113.645 200.4 114.89L249.14 137.98C249.989 138.382 250.708 139.015 251.214 139.806C251.72 140.598 251.993 141.516 252.001 142.455C252.009 143.394 251.753 144.317 251.261 145.117C250.769 145.918 250.062 146.563 249.22 146.98L200.72 171.04C198.01 172.386 195.026 173.087 192 173.087C188.974 173.087 185.99 172.386 183.28 171.04L142 150.56V173C142 174.326 141.473 175.598 140.536 176.536C139.598 177.473 138.326 178 137 178C135.674 178 134.402 177.473 133.465 176.536C132.527 175.598 132 174.326 132 173V142.75C131.951 141.761 132.196 140.78 132.706 139.931C133.215 139.082 133.965 138.403 134.86 137.98L183.6 114.89ZM152 166.69V183C152 183.658 152.13 184.309 152.382 184.916C152.635 185.524 153.004 186.076 153.47 186.54L153.49 186.57L153.72 186.78L154.32 187.34C154.82 187.807 155.543 188.43 156.49 189.21C158.36 190.74 161.06 192.76 164.43 194.79C171.13 198.8 180.77 203 192 203C203.23 203 212.88 198.8 219.57 194.79C223.169 192.629 226.558 190.135 229.69 187.34L230.29 186.78L230.45 186.62L230.51 186.56L230.52 186.55L230.54 186.54C231.004 186.075 231.372 185.523 231.622 184.915C231.873 184.308 232.001 183.657 232 183V166.68L205.16 180C201.07 182.03 196.566 183.086 192 183.086C187.434 183.086 182.93 182.03 178.84 180L152 166.69Z" fill="#39A5ED"/>
<path d="M194.878 139.09C198.178 139.45 200.818 140.035 202.798 140.845C204.808 141.655 206.263 142.72 207.163 144.04C208.063 145.36 208.513 147.01 208.513 148.99C208.513 151.72 207.403 154 205.183 155.83C202.963 157.66 199.993 158.83 196.273 159.34V162.22C196.273 162.55 196.153 162.835 195.913 163.075C195.673 163.315 195.388 163.435 195.058 163.435H189.028C188.698 163.435 188.413 163.315 188.173 163.075C187.933 162.835 187.813 162.55 187.813 162.22V159.34C185.233 159.01 183.058 158.395 181.288 157.495C179.548 156.565 178.243 155.455 177.373 154.165C176.503 152.875 176.068 151.495 176.068 150.025C176.068 149.725 176.158 149.485 176.338 149.305C176.548 149.125 176.803 149.035 177.103 149.035H186.328C186.958 149.035 187.468 149.23 187.858 149.62C188.368 150.1 188.938 150.43 189.568 150.61C190.198 150.76 191.083 150.835 192.223 150.835C195.073 150.835 196.498 150.4 196.498 149.53C196.498 149.17 196.303 148.87 195.913 148.63C195.553 148.36 194.893 148.135 193.933 147.955C193.003 147.745 191.623 147.535 189.793 147.325C185.683 146.845 182.533 145.825 180.343 144.265C178.153 142.675 177.058 140.44 177.058 137.56C177.058 135.01 178.018 132.85 179.938 131.08C181.858 129.28 184.483 128.11 187.813 127.57V124.375C187.813 124.045 187.933 123.76 188.173 123.52C188.413 123.28 188.698 123.16 189.028 123.16H195.058C195.388 123.16 195.673 123.28 195.913 123.52C196.153 123.76 196.273 124.045 196.273 124.375V127.57C198.583 127.96 200.578 128.65 202.258 129.64C203.938 130.63 205.213 131.74 206.083 132.97C206.983 134.2 207.433 135.385 207.433 136.525C207.433 136.825 207.328 137.065 207.118 137.245C206.938 137.425 206.683 137.515 206.353 137.515H196.678C196.138 137.515 195.673 137.335 195.283 136.975C194.953 136.675 194.563 136.435 194.113 136.255C193.663 136.075 192.973 135.985 192.043 135.985C190.033 135.985 189.028 136.405 189.028 137.245C189.028 137.695 189.418 138.055 190.198 138.325C190.978 138.565 192.538 138.82 194.878 139.09Z" fill="white"/>
</g>
<path d="M108.528 242.86C108.528 243.721 108.812 244.382 109.38 244.844C109.97 245.306 110.759 245.537 111.749 245.537C112.633 245.537 113.286 245.391 113.707 245.097C114.128 244.803 114.486 244.361 114.781 243.773C115.055 243.227 115.423 242.954 115.887 242.954H122.709C122.898 242.954 123.056 243.028 123.182 243.175C123.33 243.301 123.403 243.459 123.403 243.648C123.403 244.929 122.972 246.188 122.109 247.427C121.245 248.645 119.929 249.664 118.161 250.483C116.413 251.281 114.276 251.68 111.749 251.68C109.496 251.68 107.485 251.344 105.717 250.672C103.969 249.979 102.579 248.929 101.548 247.522C100.516 246.094 100 244.32 100 242.199V238.481C100 236.36 100.516 234.597 101.548 233.19C102.579 231.762 103.969 230.711 105.717 230.039C107.485 229.346 109.496 229 111.749 229C114.276 229 116.413 229.409 118.161 230.228C119.929 231.026 121.245 232.045 122.109 233.284C122.972 234.502 123.403 235.751 123.403 237.032C123.403 237.221 123.33 237.39 123.182 237.537C123.056 237.663 122.898 237.725 122.709 237.725H115.887C115.423 237.725 115.055 237.452 114.781 236.906C114.486 236.318 114.128 235.877 113.707 235.583C113.286 235.289 112.633 235.143 111.749 235.143C110.759 235.143 109.97 235.373 109.38 235.835C108.812 236.297 108.528 236.959 108.528 237.82V242.86ZM150.017 242.261C150.017 245.474 148.943 247.848 146.795 249.381C144.668 250.914 141.826 251.68 138.268 251.68C134.709 251.68 131.856 250.914 129.708 249.381C127.581 247.848 126.518 245.454 126.518 242.199V238.481C126.518 236.34 127.023 234.565 128.034 233.158C129.066 231.73 130.466 230.68 132.235 230.008C134.004 229.336 136.015 229 138.268 229C140.521 229 142.521 229.336 144.268 230.008C146.037 230.68 147.437 231.72 148.469 233.127C149.501 234.534 150.017 236.297 150.017 238.418V242.261ZM135.046 242.86C135.046 243.721 135.33 244.382 135.899 244.844C136.488 245.306 137.278 245.537 138.268 245.537C139.257 245.537 140.036 245.306 140.605 244.844C141.194 244.361 141.489 243.69 141.489 242.829V237.852C141.489 236.991 141.194 236.329 140.605 235.867C140.036 235.384 139.257 235.143 138.268 235.143C137.278 235.143 136.488 235.373 135.899 235.835C135.33 236.297 135.046 236.959 135.046 237.82V242.86ZM175.397 244.907C175.628 244.907 175.828 244.991 175.997 245.159C176.165 245.327 176.25 245.527 176.25 245.758V250.514C176.25 250.745 176.165 250.945 175.997 251.113C175.828 251.281 175.628 251.365 175.397 251.365H156.952C156.72 251.365 156.52 251.281 156.352 251.113C156.183 250.945 156.099 250.745 156.099 250.514V230.165C156.099 229.934 156.183 229.735 156.352 229.567C156.52 229.399 156.72 229.315 156.952 229.315H163.774C164.006 229.315 164.206 229.399 164.374 229.567C164.542 229.735 164.627 229.934 164.627 230.165V244.907H175.397ZM202.231 244.907C202.463 244.907 202.663 244.991 202.831 245.159C203 245.327 203.084 245.527 203.084 245.758V250.514C203.084 250.745 203 250.945 202.831 251.113C202.663 251.281 202.463 251.365 202.231 251.365H183.786C183.555 251.365 183.355 251.281 183.186 251.113C183.018 250.945 182.933 250.745 182.933 250.514V230.165C182.933 229.934 183.018 229.735 183.186 229.567C183.355 229.399 183.555 229.315 183.786 229.315H190.608C190.84 229.315 191.04 229.399 191.208 229.567C191.377 229.735 191.461 229.934 191.461 230.165V244.907H202.231ZM229.002 245.222C229.234 245.222 229.434 245.306 229.602 245.474C229.771 245.642 229.855 245.842 229.855 246.073V250.514C229.855 250.745 229.771 250.945 229.602 251.113C229.434 251.281 229.234 251.365 229.002 251.365H209.041C208.81 251.365 208.61 251.281 208.441 251.113C208.273 250.945 208.188 250.745 208.188 250.514V230.165C208.188 229.934 208.273 229.735 208.441 229.567C208.61 229.399 208.81 229.315 209.041 229.315H228.686C228.918 229.315 229.118 229.399 229.286 229.567C229.455 229.735 229.539 229.934 229.539 230.165V234.607C229.539 234.838 229.455 235.037 229.286 235.205C229.118 235.373 228.918 235.458 228.686 235.458H216.4V237.442H226.949C227.181 237.442 227.381 237.526 227.549 237.694C227.718 237.862 227.802 238.062 227.802 238.293V242.387C227.802 242.618 227.718 242.818 227.549 242.986C227.381 243.154 227.181 243.238 226.949 243.238H216.4V245.222H229.002ZM256.972 238.072C257.204 238.072 257.404 238.156 257.572 238.324C257.741 238.492 257.825 238.692 257.825 238.923V242.261C257.825 245.453 256.73 247.827 254.54 249.381C252.371 250.914 249.497 251.68 245.918 251.68C242.338 251.68 239.454 250.914 237.264 249.381C235.095 247.827 234.011 245.433 234.011 242.199V238.481C234.011 236.34 234.537 234.565 235.59 233.158C236.643 231.73 238.064 230.68 239.854 230.008C241.643 229.336 243.665 229 245.918 229C248.613 229 250.834 229.441 252.582 230.323C254.33 231.205 255.593 232.203 256.372 233.316C257.172 234.429 257.572 235.332 257.572 236.025C257.572 236.214 257.498 236.381 257.351 236.528C257.225 236.654 257.067 236.718 256.877 236.718H249.739C249.318 236.718 249.013 236.602 248.823 236.371C248.171 235.552 247.202 235.143 245.918 235.143C244.949 235.143 244.139 235.363 243.486 235.804C242.854 236.245 242.538 236.812 242.538 237.505V242.86C242.538 243.7 242.854 244.361 243.486 244.844C244.117 245.306 244.928 245.537 245.918 245.537C247.223 245.537 248.181 245.317 248.792 244.876C249.424 244.414 249.75 243.879 249.771 243.27H247.813C247.581 243.27 247.381 243.185 247.213 243.017C247.044 242.849 246.96 242.65 246.96 242.419V238.923C246.96 238.692 247.044 238.492 247.213 238.324C247.381 238.156 247.581 238.072 247.813 238.072H256.972ZM282.669 245.222C282.901 245.222 283.101 245.306 283.269 245.474C283.438 245.642 283.522 245.842 283.522 246.073V250.514C283.522 250.745 283.438 250.945 283.269 251.113C283.101 251.281 282.901 251.365 282.669 251.365H262.708C262.477 251.365 262.277 251.281 262.108 251.113C261.94 250.945 261.856 250.745 261.856 250.514V230.165C261.856 229.934 261.94 229.735 262.108 229.567C262.277 229.399 262.477 229.315 262.708 229.315H282.353C282.585 229.315 282.785 229.399 282.954 229.567C283.122 229.735 283.206 229.934 283.206 230.165V234.607C283.206 234.838 283.122 235.037 282.954 235.205C282.785 235.373 282.585 235.458 282.353 235.458H270.067V237.442H280.616C280.848 237.442 281.048 237.526 281.216 237.694C281.385 237.862 281.469 238.062 281.469 238.293V242.387C281.469 242.618 281.385 242.818 281.216 242.986C281.048 243.154 280.848 243.238 280.616 243.238H270.067V245.222H282.669Z" fill="#39A5ED"/>
<path d="M74.5276 281.298C74.5276 282.159 74.8118 282.82 75.3803 283.282C75.9699 283.744 76.7595 283.975 77.7491 283.975C78.6335 283.975 79.2862 283.828 79.7073 283.534C80.1284 283.24 80.4864 282.799 80.7811 282.211C81.0549 281.665 81.4233 281.392 81.8866 281.392H88.7086C88.8981 281.392 89.0561 281.465 89.1824 281.612C89.3298 281.738 89.4035 281.896 89.4035 282.085C89.4035 283.366 88.9718 284.626 88.1085 285.865C87.2453 287.083 85.9293 288.101 84.1606 288.92C82.413 289.718 80.2758 290.118 77.7491 290.118C75.4962 290.118 73.4853 289.781 71.7166 289.109C69.969 288.416 68.5793 287.366 67.5476 285.959C66.5159 284.531 66 282.757 66 280.636V276.919C66 274.798 66.5159 273.034 67.5476 271.627C68.5793 270.199 69.969 269.149 71.7166 268.477C73.4853 267.784 75.4962 267.438 77.7491 267.438C80.2758 267.438 82.413 267.847 84.1606 268.666C85.9293 269.464 87.2453 270.482 88.1085 271.721C88.9718 272.939 89.4035 274.189 89.4035 275.47C89.4035 275.659 89.3298 275.827 89.1824 275.974C89.0561 276.1 88.8981 276.163 88.7086 276.163H81.8866C81.4233 276.163 81.0549 275.89 80.7811 275.344C80.4864 274.756 80.1284 274.315 79.7073 274.021C79.2862 273.727 78.6335 273.58 77.7491 273.58C76.7595 273.58 75.9699 273.811 75.3803 274.273C74.8118 274.735 74.5276 275.397 74.5276 276.258V281.298ZM114.785 267.753C115.016 267.753 115.217 267.836 115.385 268.004C115.553 268.172 115.638 268.372 115.638 268.603V288.952C115.638 289.183 115.553 289.382 115.385 289.55C115.217 289.718 115.016 289.802 114.785 289.802H108.279C108.047 289.802 107.847 289.718 107.679 289.55C107.51 289.382 107.426 289.183 107.426 288.952V282.243H101.109V288.952C101.109 289.183 101.025 289.382 100.856 289.55C100.688 289.718 100.488 289.802 100.256 289.802H93.7497C93.518 289.802 93.318 289.729 93.1496 289.582C92.9811 289.414 92.8969 289.204 92.8969 288.952V268.603C92.8969 268.372 92.9811 268.172 93.1496 268.004C93.318 267.836 93.518 267.753 93.7497 267.753H100.256C100.488 267.753 100.688 267.836 100.856 268.004C101.025 268.172 101.109 268.372 101.109 268.603V275.061H107.426V268.603C107.426 268.372 107.51 268.172 107.679 268.004C107.847 267.836 108.047 267.753 108.279 267.753H114.785ZM142.85 280.699C142.85 283.912 141.776 286.285 139.628 287.818C137.501 289.351 134.659 290.118 131.1 290.118C127.542 290.118 124.689 289.351 122.541 287.818C120.415 286.285 119.351 283.891 119.351 280.636V276.919C119.351 274.777 119.857 273.002 120.867 271.595C121.899 270.167 123.299 269.118 125.068 268.446C126.837 267.774 128.848 267.438 131.1 267.438C133.353 267.438 135.354 267.774 137.101 268.446C138.87 269.118 140.27 270.157 141.302 271.564C142.334 272.971 142.85 274.735 142.85 276.856V280.699ZM127.879 281.298C127.879 282.159 128.163 282.82 128.732 283.282C129.321 283.744 130.111 283.975 131.1 283.975C132.09 283.975 132.869 283.744 133.438 283.282C134.027 282.799 134.322 282.127 134.322 281.266V276.289C134.322 275.428 134.027 274.767 133.438 274.305C132.869 273.822 132.09 273.58 131.1 273.58C130.111 273.58 129.321 273.811 128.732 274.273C128.163 274.735 127.879 275.397 127.879 276.258V281.298ZM162.23 283.345H167.947C168.178 283.345 168.378 283.429 168.547 283.597C168.715 283.765 168.799 283.965 168.799 284.196V288.952C168.799 289.183 168.715 289.382 168.547 289.55C168.378 289.718 168.178 289.802 167.947 289.802H147.923C147.691 289.802 147.491 289.718 147.323 289.55C147.154 289.382 147.07 289.183 147.07 288.952V284.196C147.07 283.965 147.154 283.765 147.323 283.597C147.491 283.429 147.691 283.345 147.923 283.345H153.703V274.21H147.923C147.691 274.21 147.491 274.126 147.323 273.958C147.154 273.79 147.07 273.591 147.07 273.36V268.603C147.07 268.372 147.154 268.172 147.323 268.004C147.491 267.836 147.691 267.753 147.923 267.753H167.947C168.178 267.753 168.378 267.836 168.547 268.004C168.715 268.172 168.799 268.372 168.799 268.603V273.36C168.799 273.591 168.715 273.79 168.547 273.958C168.378 274.126 168.178 274.21 167.947 274.21H162.23V283.345ZM181.863 281.298C181.863 282.159 182.148 282.82 182.716 283.282C183.306 283.744 184.095 283.975 185.085 283.975C185.969 283.975 186.622 283.828 187.043 283.534C187.464 283.24 187.822 282.799 188.117 282.211C188.391 281.665 188.759 281.392 189.222 281.392H196.044C196.234 281.392 196.392 281.465 196.518 281.612C196.665 281.738 196.739 281.896 196.739 282.085C196.739 283.366 196.308 284.626 195.444 285.865C194.581 287.083 193.265 288.101 191.496 288.92C189.749 289.718 187.612 290.118 185.085 290.118C182.832 290.118 180.821 289.781 179.052 289.109C177.305 288.416 175.915 287.366 174.883 285.959C173.852 284.531 173.336 282.757 173.336 280.636V276.919C173.336 274.798 173.852 273.034 174.883 271.627C175.915 270.199 177.305 269.149 179.052 268.477C180.821 267.784 182.832 267.438 185.085 267.438C187.612 267.438 189.749 267.847 191.496 268.666C193.265 269.464 194.581 270.482 195.444 271.721C196.308 272.939 196.739 274.189 196.739 275.47C196.739 275.659 196.665 275.827 196.518 275.974C196.392 276.1 196.234 276.163 196.044 276.163H189.222C188.759 276.163 188.391 275.89 188.117 275.344C187.822 274.756 187.464 274.315 187.043 274.021C186.622 273.727 185.969 273.58 185.085 273.58C184.095 273.58 183.306 273.811 182.716 274.273C182.148 274.735 181.863 275.397 181.863 276.258V281.298ZM221.835 283.66C222.067 283.66 222.267 283.744 222.435 283.912C222.604 284.08 222.688 284.279 222.688 284.51V288.952C222.688 289.183 222.604 289.382 222.435 289.55C222.267 289.718 222.067 289.802 221.835 289.802H201.874C201.643 289.802 201.442 289.718 201.274 289.55C201.106 289.382 201.021 289.183 201.021 288.952V268.603C201.021 268.372 201.106 268.172 201.274 268.004C201.442 267.836 201.643 267.753 201.874 267.753H221.519C221.751 267.753 221.951 267.836 222.119 268.004C222.288 268.172 222.372 268.372 222.372 268.603V273.044C222.372 273.275 222.288 273.475 222.119 273.643C221.951 273.811 221.751 273.895 221.519 273.895H209.233V275.879H219.782C220.014 275.879 220.214 275.963 220.382 276.131C220.551 276.299 220.635 276.499 220.635 276.73V280.825C220.635 281.056 220.551 281.256 220.382 281.424C220.214 281.592 220.014 281.675 219.782 281.675H209.233V283.66H221.835Z" fill="#39A5ED"/>
<path d="M262.661 283.345C262.893 283.345 263.093 283.429 263.261 283.597C263.43 283.765 263.514 283.965 263.514 284.196V288.952C263.514 289.183 263.43 289.382 263.261 289.55C263.093 289.718 262.893 289.802 262.661 289.802H243.584C243.353 289.802 243.153 289.718 242.984 289.55C242.816 289.382 242.732 289.183 242.732 288.952V284.196C242.732 283.965 242.816 283.765 242.984 283.597C243.153 283.429 243.353 283.345 243.584 283.345H249.427V275.785L246.237 277.896C246.069 278.001 245.911 278.053 245.764 278.053C245.49 278.053 245.248 277.917 245.037 277.644L242.479 273.675C242.416 273.549 242.384 273.402 242.384 273.234C242.384 272.898 242.511 272.635 242.763 272.446L249.775 267.879C249.922 267.795 250.091 267.753 250.28 267.753H256.786C257.018 267.753 257.218 267.836 257.386 268.004C257.555 268.172 257.639 268.372 257.639 268.603V283.345H262.661ZM289.874 281.644C289.874 284.437 288.895 286.548 286.937 287.976C285 289.404 282.452 290.118 279.294 290.118C276.114 290.118 273.556 289.404 271.619 287.976C269.682 286.548 268.713 284.416 268.713 281.581V275.974C268.713 274.084 269.187 272.499 270.134 271.218C271.082 269.937 272.345 268.992 273.924 268.383C275.525 267.753 277.314 267.438 279.294 267.438C281.273 267.438 283.052 267.753 284.631 268.383C286.232 268.992 287.505 269.937 288.453 271.218C289.4 272.478 289.874 274.042 289.874 275.911V281.644ZM277.241 281.896C277.241 282.484 277.441 282.978 277.841 283.377C278.241 283.755 278.725 283.943 279.294 283.943C279.862 283.943 280.346 283.744 280.747 283.345C281.147 282.946 281.347 282.463 281.347 281.896V275.596C281.347 275.008 281.147 274.525 280.747 274.147C280.368 273.748 279.883 273.549 279.294 273.549C278.704 273.549 278.209 273.748 277.809 274.147C277.43 274.546 277.241 275.029 277.241 275.596V281.896ZM316.328 283.345C316.56 283.345 316.76 283.429 316.928 283.597C317.097 283.765 317.181 283.965 317.181 284.196V288.952C317.181 289.183 317.097 289.382 316.928 289.55C316.76 289.718 316.56 289.802 316.328 289.802H297.252C297.02 289.802 296.82 289.718 296.652 289.55C296.483 289.382 296.399 289.183 296.399 288.952V284.196C296.399 283.965 296.483 283.765 296.652 283.597C296.82 283.429 297.02 283.345 297.252 283.345H303.095V275.785L299.905 277.896C299.736 278.001 299.578 278.053 299.431 278.053C299.157 278.053 298.915 277.917 298.704 277.644L296.146 273.675C296.083 273.549 296.051 273.402 296.051 273.234C296.051 272.898 296.178 272.635 296.43 272.446L303.442 267.879C303.589 267.795 303.758 267.753 303.947 267.753H310.454C310.685 267.753 310.885 267.836 311.054 268.004C311.222 268.172 311.306 268.372 311.306 268.603V283.345H316.328Z" fill="#39A5ED"/>
</svg>
