<svg width="384" height="384" viewBox="0 0 384 384" fill="none" xmlns="http://www.w3.org/2000/svg">
<g clip-path="url(#clip0_2605_2737)">
<rect width="384" height="384" fill="white"/>
<path fill-rule="evenodd" clip-rule="evenodd" d="M170.977 629.217L171.018 629.238L171.06 629.259L171.101 629.279L171.163 629.321L171.225 629.362L171.266 629.382L171.308 629.403H171.328L171.39 629.424L171.473 629.465L171.514 629.486L171.555 629.506L171.638 629.527H171.659L171.7 629.548L171.741 629.568H171.762L171.803 629.589H171.824L171.886 629.61H171.907H171.927L171.969 629.63L172.01 629.651L172.092 629.672L172.134 629.692L172.175 629.713L172.216 629.734L172.299 629.754H172.32H172.34L172.402 629.775H172.423L172.464 629.796C172.547 629.816 172.63 629.837 172.712 629.858L172.754 629.878H172.774L172.857 629.899H172.898H172.939H172.96H172.981H173.022H173.084H173.125H173.187H173.229H173.249H173.332H173.353H173.394H173.456H173.477H173.518H173.621H173.683H173.745H173.766H173.828H173.848H173.869H173.931H173.993H174.055C177.773 629.899 180.81 626.883 180.81 623.144C180.81 619.426 177.794 616.389 174.055 616.389C173.952 616.389 173.828 616.389 173.724 616.389H173.704C173.621 616.389 173.518 616.41 173.435 616.41L173.311 616.43C173.167 616.451 173.001 616.472 172.857 616.492L172.733 616.513H172.712H172.671L172.568 616.534H172.526L172.402 616.554H172.382H172.361L172.237 616.596L172.113 616.637L172.072 616.658H172.051L171.927 616.699L171.803 616.74H171.783H171.762L171.638 616.781H171.617L171.514 616.823H171.493L171.431 616.843L171.349 616.885H171.328L171.287 616.905L171.163 616.967L171.122 616.988L171.018 617.029L170.936 617.071H170.915L170.708 617.174L170.605 617.236L170.523 617.298L170.502 617.319L170.461 617.339L170.399 617.381L170.378 617.401L170.295 617.442L170.192 617.504L170.089 617.587L170.006 617.649L169.985 617.67L169.944 617.711L169.903 617.752L169.861 617.773C169.572 618 169.304 618.248 169.076 618.537L169.015 618.599L168.994 618.62L168.973 618.641C168.891 618.723 168.829 618.827 168.746 618.909L168.705 618.971L168.663 619.012L168.643 619.054L168.601 619.116L168.519 619.219L168.457 619.322L168.436 619.364L168.415 619.384L168.333 619.508L168.271 619.612L168.25 619.653L168.188 619.756L168.147 619.839L168.126 619.88L168.085 619.983L168.044 620.066L168.023 620.087L167.961 620.211L167.94 620.252L167.899 620.376L167.858 620.459L167.837 620.5L167.816 620.562V620.582L167.775 620.686V620.706C167.507 621.429 167.362 622.194 167.362 623.02C167.383 625.829 168.849 628.081 170.977 629.217ZM11.233 -189.726C8.11372 -190.201 4.93248 -190.615 1.62729 -190.945L-0.252533 -189.706C-0.892914 -188.673 -1.2441 -187.475 -1.2441 -186.173C-1.2441 -182.455 1.7719 -179.418 5.51089 -179.418C9.22923 -179.418 12.2659 -182.434 12.2659 -186.173C12.2452 -187.475 11.8734 -188.693 11.233 -189.726ZM781.198 346.706C784.916 346.706 787.953 349.722 787.953 353.461C787.953 357.2 784.937 360.216 781.198 360.216C777.479 360.216 774.463 357.2 774.463 353.461C774.463 349.722 777.479 346.706 781.198 346.706ZM578.858 279.239C582.576 279.239 585.613 282.255 585.613 285.994C585.613 289.712 582.597 292.749 578.858 292.749C575.14 292.749 572.124 289.733 572.124 285.994C572.103 282.276 575.119 279.239 578.858 279.239ZM612.571 279.239C616.289 279.239 619.305 282.255 619.305 285.994C619.305 289.712 616.289 292.728 612.571 292.728C608.853 292.728 605.816 289.712 605.816 285.994C605.837 282.276 608.853 279.239 612.571 279.239ZM747.485 346.706C751.203 346.706 754.24 349.722 754.24 353.461C754.24 357.2 751.224 360.216 747.485 360.216C743.766 360.216 740.75 357.2 740.75 353.461C740.75 349.722 743.766 346.706 747.485 346.706ZM680.038 346.706C683.757 346.706 686.773 349.722 686.773 353.461C686.773 357.179 683.757 360.195 680.038 360.195C676.32 360.195 673.283 357.179 673.283 353.461C673.283 349.722 676.299 346.706 680.038 346.706ZM713.751 346.706C717.47 346.706 720.486 349.722 720.486 353.461C720.486 357.179 717.47 360.195 713.751 360.195C710.033 360.195 706.996 357.179 706.996 353.461C707.017 349.722 710.033 346.706 713.751 346.706ZM578.858 346.706C582.576 346.706 585.592 349.722 585.592 353.44C585.592 357.159 582.576 360.195 578.858 360.195C575.14 360.195 572.103 357.179 572.103 353.44C572.103 349.722 575.119 346.706 578.858 346.706ZM578.858 312.973C582.576 312.973 585.613 315.989 585.613 319.728C585.613 323.446 582.597 326.462 578.858 326.462C575.14 326.462 572.103 323.446 572.103 319.728C572.103 315.989 575.119 312.973 578.858 312.973ZM612.571 346.706C616.289 346.706 619.305 349.722 619.305 353.44C619.305 357.159 616.289 360.195 612.571 360.195C608.853 360.195 605.816 357.179 605.816 353.44C605.837 349.722 608.853 346.706 612.571 346.706ZM612.571 312.973C616.289 312.973 619.305 315.989 619.305 319.728C619.305 323.446 616.289 326.462 612.571 326.462C608.853 326.462 605.816 323.446 605.816 319.728C605.837 315.989 608.853 312.973 612.571 312.973ZM646.305 346.706C650.023 346.706 653.06 349.722 653.06 353.44C653.06 357.159 650.044 360.195 646.305 360.195C642.586 360.195 639.55 357.179 639.55 353.44C639.55 349.722 642.586 346.706 646.305 346.706ZM646.305 312.973C650.023 312.973 653.06 315.989 653.06 319.728C653.06 323.446 650.044 326.462 646.305 326.462C642.586 326.462 639.55 323.446 639.55 319.728C639.55 315.989 642.566 312.973 646.305 312.973ZM578.858 245.526C582.576 245.526 585.613 248.542 585.613 252.281C585.613 255.999 582.597 259.015 578.858 259.015C575.14 259.015 572.103 255.999 572.103 252.281C572.103 248.542 575.119 245.526 578.858 245.526ZM5.49023 -125.482C9.20857 -125.482 12.2452 -122.466 12.2452 -118.727C12.2452 -115.008 9.22923 -111.972 5.49023 -111.972C1.77189 -111.972 -1.26476 -114.988 -1.26476 -118.727C-1.2441 -122.445 1.77189 -125.482 5.49023 -125.482ZM5.49023 -58.0145C9.20857 -58.0145 12.2452 -54.9985 12.2452 -51.2595C12.2452 -47.5205 9.22923 -44.5045 5.49023 -44.5045C1.77189 -44.5045 -1.26476 -47.5205 -1.26476 -51.2595C-1.26476 -54.9985 1.77189 -58.0145 5.49023 -58.0145ZM5.49023 9.43209C9.20857 9.43209 12.2452 12.4481 12.2452 16.1871C12.2452 19.9054 9.22923 22.9421 5.49023 22.9421C1.77189 22.9421 -1.26476 19.9261 -1.26476 16.1871C-1.2441 12.4481 1.77189 9.43209 5.49023 9.43209ZM5.49023 76.8786C9.20857 76.8786 12.2452 79.8946 12.2452 83.6336C12.2452 87.3519 9.22923 90.3886 5.49023 90.3886C1.77189 90.3886 -1.26476 87.3726 -1.26476 83.6336C-1.2441 79.8946 1.77189 76.8786 5.49023 76.8786ZM5.49023 43.1657C9.20857 43.1657 12.2452 46.1817 12.2452 49.9207C12.2452 53.639 9.22923 56.6757 5.49023 56.6757C1.77189 56.6757 -1.26476 53.6597 -1.26476 49.9207C-1.2441 46.1817 1.77189 43.1657 5.49023 43.1657ZM5.49023 -24.3015C9.20857 -24.3015 12.2452 -21.2855 12.2452 -17.5465C12.2452 -13.8282 9.22923 -10.7915 5.49023 -10.7915C1.77189 -10.7915 -1.26476 -13.8075 -1.26476 -17.5465C-1.2441 -21.2855 1.77189 -24.3015 5.49023 -24.3015ZM5.49023 -91.748C9.20857 -91.748 12.2452 -88.7321 12.2452 -84.9931C12.2452 -81.2747 9.22923 -78.2381 5.49023 -78.2381C1.77189 -78.2381 -1.26476 -81.2541 -1.26476 -84.9931C-1.2441 -88.7321 1.77189 -91.748 5.49023 -91.748ZM5.49023 -159.195C9.20857 -159.195 12.2452 -156.179 12.2452 -152.46C12.2452 -148.742 9.22923 -145.705 5.49023 -145.705C1.77189 -145.705 -1.26476 -148.721 -1.26476 -152.46C-1.2441 -156.179 1.77189 -159.195 5.49023 -159.195ZM5.49023 144.346C9.20857 144.346 12.2452 147.362 12.2452 151.101C12.2452 154.819 9.22923 157.856 5.49023 157.856C1.77189 157.856 -1.26476 154.84 -1.26476 151.101C-1.2441 147.362 1.77189 144.346 5.49023 144.346ZM5.49023 211.792C9.20857 211.792 12.2452 214.808 12.2452 218.547C12.2452 222.266 9.22923 225.302 5.49023 225.302C1.77189 225.302 -1.26476 222.286 -1.26476 218.547C-1.2441 214.808 1.77189 211.792 5.49023 211.792ZM5.49023 279.239C9.20857 279.239 12.2452 282.255 12.2452 285.994C12.2452 289.712 9.22923 292.749 5.49023 292.749C1.77189 292.749 -1.26476 289.733 -1.26476 285.994C-1.2441 282.255 1.77189 279.239 5.49023 279.239ZM5.49023 346.685C9.20857 346.685 12.2452 349.701 12.2452 353.44C12.2452 357.159 9.22923 360.175 5.49023 360.175C1.77189 360.175 -1.26476 357.159 -1.26476 353.44C-1.2441 349.722 1.77189 346.685 5.49023 346.685ZM5.49023 312.973C9.20857 312.973 12.2452 315.988 12.2452 319.707C12.2452 323.425 9.22923 326.462 5.49023 326.462C1.77189 326.462 -1.26476 323.446 -1.26476 319.707C-1.2441 315.988 1.77189 312.973 5.49023 312.973ZM5.49023 245.505C9.20857 245.505 12.2452 248.521 12.2452 252.24C12.2452 255.958 9.22923 258.995 5.49023 258.995C1.77189 258.995 -1.26476 255.979 -1.26476 252.24C-1.2441 248.542 1.77189 245.505 5.49023 245.505ZM5.49023 178.059C9.20857 178.059 12.2452 181.075 12.2452 184.814C12.2452 188.532 9.22923 191.569 5.49023 191.569C1.77189 191.569 -1.26476 188.553 -1.26476 184.814C-1.2441 181.075 1.77189 178.059 5.49023 178.059ZM5.49023 110.612C9.20857 110.612 12.2452 113.628 12.2452 117.367C12.2452 121.086 9.22923 124.122 5.49023 124.122C1.77189 124.122 -1.26476 121.106 -1.26476 117.367C-1.2441 113.628 1.77189 110.612 5.49023 110.612ZM207.85 -58.0145C211.569 -58.0145 214.605 -54.9985 214.605 -51.2595C214.605 -47.5411 211.589 -44.5045 207.85 -44.5045C204.132 -44.5045 201.096 -47.5205 201.096 -51.2595C201.116 -54.9985 204.132 -58.0145 207.85 -58.0145ZM207.85 9.43209C211.569 9.43209 214.605 12.4481 214.605 16.1871C214.605 19.9054 211.589 22.9421 207.85 22.9421C204.132 22.9421 201.096 19.9261 201.096 16.1871C201.116 12.4481 204.132 9.43209 207.85 9.43209ZM207.85 76.8786C211.569 76.8786 214.605 79.8946 214.605 83.6336C214.605 87.3519 211.589 90.3886 207.85 90.3886C204.132 90.3886 201.096 87.3726 201.096 83.6336C201.116 79.9153 204.132 76.8786 207.85 76.8786ZM207.85 43.1657C211.569 43.1657 214.605 46.1817 214.605 49.9207C214.605 53.639 211.589 56.6757 207.85 56.6757C204.132 56.6757 201.096 53.6597 201.096 49.9207C201.116 46.1817 204.132 43.1657 207.85 43.1657ZM207.85 -24.3015C211.569 -24.3015 214.605 -21.2855 214.605 -17.5465C214.605 -13.8282 211.589 -10.7915 207.85 -10.7915C204.132 -10.7915 201.096 -13.8075 201.096 -17.5465C201.116 -21.2649 204.132 -24.3015 207.85 -24.3015ZM207.85 144.346C211.569 144.346 214.605 147.362 214.605 151.101C214.605 154.819 211.589 157.856 207.85 157.856C204.132 157.856 201.096 154.84 201.096 151.101C201.116 147.362 204.132 144.346 207.85 144.346ZM207.85 211.792C211.569 211.792 214.605 214.808 214.605 218.547C214.605 222.266 211.589 225.302 207.85 225.302C204.132 225.302 201.096 222.286 201.096 218.547C201.116 214.808 204.132 211.792 207.85 211.792ZM207.85 279.239C211.569 279.239 214.605 282.255 214.605 285.994C214.605 289.712 211.589 292.728 207.85 292.728C204.132 292.728 201.096 289.712 201.096 285.994C201.116 282.255 204.132 279.239 207.85 279.239ZM207.85 346.706C211.569 346.706 214.605 349.722 214.605 353.44C214.605 357.159 211.589 360.195 207.85 360.195C204.132 360.195 201.096 357.179 201.096 353.44C201.116 349.722 204.132 346.706 207.85 346.706ZM207.85 312.973C211.569 312.973 214.605 315.989 214.605 319.728C214.605 323.446 211.589 326.482 207.85 326.482C204.132 326.482 201.096 323.466 201.096 319.728C201.116 315.989 204.132 312.973 207.85 312.973ZM207.85 245.505C211.569 245.505 214.605 248.521 214.605 252.26C214.605 255.979 211.589 259.015 207.85 259.015C204.132 259.015 201.096 255.999 201.096 252.26C201.116 248.542 204.132 245.505 207.85 245.505ZM207.85 178.059C211.569 178.059 214.605 181.075 214.605 184.814C214.605 188.532 211.589 191.569 207.85 191.569C204.132 191.569 201.096 188.553 201.096 184.814C201.116 181.075 204.132 178.059 207.85 178.059ZM207.85 110.612C211.569 110.612 214.605 113.628 214.605 117.367C214.605 121.086 211.589 124.122 207.85 124.122C204.132 124.122 201.096 121.106 201.096 117.367C201.116 113.628 204.132 110.612 207.85 110.612ZM106.67 -125.482C110.389 -125.482 113.425 -122.466 113.425 -118.727C113.425 -115.008 110.409 -111.972 106.67 -111.972C102.952 -111.972 99.9154 -114.988 99.9154 -118.727C99.936 -122.445 102.952 -125.482 106.67 -125.482ZM140.404 -125.482C144.122 -125.482 147.159 -122.466 147.159 -118.727C147.159 -115.008 144.143 -111.972 140.404 -111.972C136.686 -111.972 133.649 -114.988 133.649 -118.727C133.67 -122.445 136.686 -125.482 140.404 -125.482ZM39.2238 -125.482C42.9422 -125.482 45.9788 -122.466 45.9788 -118.727C45.9788 -115.008 42.9628 -111.972 39.2238 -111.972C35.5055 -111.972 32.4688 -114.988 32.4688 -118.727C32.4895 -122.445 35.5055 -125.482 39.2238 -125.482ZM72.9574 -125.482C76.6758 -125.482 79.7124 -122.466 79.7124 -118.727C79.7124 -115.008 76.6964 -111.972 72.9574 -111.972C69.2391 -111.972 66.2024 -114.988 66.2024 -118.727C66.2024 -122.445 69.2184 -125.482 72.9574 -125.482ZM-28.2227 -125.482C-24.5044 -125.482 -21.4677 -122.466 -21.4677 -118.727C-21.4677 -115.008 -24.4837 -111.972 -28.2227 -111.972C-31.941 -111.972 -34.9777 -114.988 -34.9777 -118.727C-34.9777 -122.445 -31.941 -125.482 -28.2227 -125.482ZM-61.9563 -125.482C-58.238 -125.482 -55.2013 -122.466 -55.2013 -118.727C-55.2013 -115.008 -58.2173 -111.972 -61.9563 -111.972C-65.6746 -111.972 -68.7113 -114.988 -68.7113 -118.727C-68.6906 -122.466 -65.6746 -125.482 -61.9563 -125.482ZM174.138 -58.0145C177.856 -58.0145 180.893 -54.9985 180.893 -51.2595C180.893 -47.5411 177.877 -44.5045 174.138 -44.5045C170.419 -44.5045 167.383 -47.5205 167.383 -51.2595C167.383 -54.9985 170.399 -58.0145 174.138 -58.0145ZM106.67 -58.0145C110.389 -58.0145 113.425 -54.9985 113.425 -51.2595C113.425 -47.5411 110.409 -44.5045 106.67 -44.5045C102.952 -44.5045 99.9154 -47.5205 99.9154 -51.2595C99.936 -54.9985 102.952 -58.0145 106.67 -58.0145ZM140.404 -58.0145C144.122 -58.0145 147.159 -54.9985 147.159 -51.2595C147.159 -47.5411 144.143 -44.5045 140.404 -44.5045C136.686 -44.5045 133.649 -47.5205 133.649 -51.2595C133.67 -54.9985 136.686 -58.0145 140.404 -58.0145ZM39.2238 -58.0145C42.9422 -58.0145 45.9788 -54.9985 45.9788 -51.2595C45.9788 -47.5205 42.9628 -44.5045 39.2238 -44.5045C35.5055 -44.5045 32.4688 -47.5205 32.4688 -51.2595C32.4688 -54.9985 35.5055 -58.0145 39.2238 -58.0145ZM72.9574 -58.0145C76.6758 -58.0145 79.7124 -54.9985 79.7124 -51.2595C79.7124 -47.5205 76.6964 -44.5045 72.9574 -44.5045C69.2391 -44.5045 66.2024 -47.5205 66.2024 -51.2595C66.2024 -54.9985 69.2184 -58.0145 72.9574 -58.0145ZM-28.2227 -58.0145C-24.5044 -58.0145 -21.4677 -54.9985 -21.4677 -51.2595C-21.4677 -47.5205 -24.4837 -44.5045 -28.2227 -44.5045C-31.941 -44.5045 -34.9777 -47.5205 -34.9777 -51.2595C-34.9777 -54.9985 -31.941 -58.0145 -28.2227 -58.0145ZM-95.6693 -58.0145C-91.9509 -58.0145 -88.9143 -54.9985 -88.9143 -51.2595C-88.9143 -47.5411 -91.9303 -44.5045 -95.6693 -44.5045C-99.4082 -44.5045 -102.424 -47.5205 -102.424 -51.2595C-102.424 -54.9985 -99.4082 -58.0145 -95.6693 -58.0145ZM-61.9563 -58.0145C-58.238 -58.0145 -55.2013 -54.9985 -55.2013 -51.2595C-55.2013 -47.5411 -58.2173 -44.5045 -61.9563 -44.5045C-65.6746 -44.5045 -68.7113 -47.5205 -68.7113 -51.2595C-68.6906 -54.9985 -65.6746 -58.0145 -61.9563 -58.0145ZM376.498 9.43209C380.216 9.43209 383.253 12.4481 383.253 16.1871C383.253 19.9054 380.237 22.9421 376.498 22.9421C372.78 22.9421 369.764 19.9261 369.764 16.1871C369.743 12.4481 372.759 9.43209 376.498 9.43209ZM309.031 9.43209C312.749 9.43209 315.765 12.4481 315.765 16.1871C315.765 19.9054 312.749 22.9421 309.031 22.9421C305.312 22.9421 302.276 19.9261 302.276 16.1871C302.296 12.4481 305.312 9.43209 309.031 9.43209ZM342.764 9.43209C346.483 9.43209 349.499 12.4481 349.499 16.1871C349.499 19.9054 346.483 22.9421 342.764 22.9421C339.046 22.9421 336.009 19.9261 336.009 16.1871C336.009 12.4481 339.046 9.43209 342.764 9.43209ZM241.584 9.43209C245.302 9.43209 248.339 12.4481 248.339 16.1871C248.339 19.9054 245.323 22.9421 241.584 22.9421C237.866 22.9421 234.829 19.9261 234.829 16.1871C234.85 12.4481 237.866 9.43209 241.584 9.43209ZM275.318 9.43209C279.036 9.43209 282.073 12.4481 282.073 16.1871C282.073 19.9054 279.057 22.9421 275.318 22.9421C271.599 22.9421 268.563 19.9261 268.563 16.1871C268.563 12.4481 271.579 9.43209 275.318 9.43209ZM174.138 9.43209C177.856 9.43209 180.893 12.4481 180.893 16.1871C180.893 19.9054 177.877 22.9421 174.138 22.9421C170.419 22.9421 167.383 19.9261 167.383 16.1871C167.383 12.4481 170.399 9.43209 174.138 9.43209ZM106.67 9.43209C110.389 9.43209 113.425 12.4481 113.425 16.1871C113.425 19.9054 110.409 22.9421 106.67 22.9421C102.952 22.9421 99.9154 19.9261 99.9154 16.1871C99.936 12.4481 102.952 9.43209 106.67 9.43209ZM140.404 9.43209C144.122 9.43209 147.159 12.4481 147.159 16.1871C147.159 19.9054 144.143 22.9421 140.404 22.9421C136.686 22.9421 133.649 19.9261 133.649 16.1871C133.67 12.4481 136.686 9.43209 140.404 9.43209ZM39.2238 9.43209C42.9422 9.43209 45.9788 12.4481 45.9788 16.1871C45.9788 19.9054 42.9628 22.9421 39.2238 22.9421C35.5055 22.9421 32.4688 19.9261 32.4688 16.1871C32.4895 12.4481 35.5055 9.43209 39.2238 9.43209ZM72.9574 9.43209C76.6758 9.43209 79.7124 12.4481 79.7124 16.1871C79.7124 19.9054 76.6964 22.9421 72.9574 22.9421C69.2391 22.9421 66.2024 19.9261 66.2024 16.1871C66.2024 12.4481 69.2184 9.43209 72.9574 9.43209ZM-28.2227 9.43209C-24.5044 9.43209 -21.4677 12.4481 -21.4677 16.1871C-21.4677 19.9054 -24.4837 22.9421 -28.2227 22.9421C-31.9617 22.9421 -34.9777 19.9261 -34.9777 16.1871C-34.9777 12.4481 -31.941 9.43209 -28.2227 9.43209ZM-95.6693 9.43209C-91.9509 9.43209 -88.9143 12.4481 -88.9143 16.1871C-88.9143 19.9054 -91.9303 22.9421 -95.6693 22.9421C-99.4082 22.9421 -102.424 19.9261 -102.424 16.1871C-102.424 12.4481 -99.4082 9.43209 -95.6693 9.43209ZM-61.9563 9.43209C-58.238 9.43209 -55.2013 12.4481 -55.2013 16.1871C-55.2013 19.9054 -58.2173 22.9421 -61.9563 22.9421C-65.6746 22.9421 -68.7113 19.9261 -68.7113 16.1871C-68.6906 12.4481 -65.6746 9.43209 -61.9563 9.43209ZM-163.136 9.43209C-159.418 9.43209 -156.381 12.4481 -156.381 16.1871C-156.381 19.9054 -159.397 22.9214 -163.136 22.9214C-166.855 22.9214 -169.891 19.9054 -169.891 16.1871C-169.871 12.4481 -166.855 9.43209 -163.136 9.43209ZM-129.403 9.43209C-125.685 9.43209 -122.648 12.4481 -122.648 16.1871C-122.648 19.9054 -125.664 22.9214 -129.403 22.9214C-133.142 22.9214 -136.158 19.9054 -136.158 16.1871C-136.158 12.4481 -133.121 9.43209 -129.403 9.43209ZM-196.849 9.43209C-193.131 9.43209 -190.094 12.4481 -190.094 16.1871C-190.094 19.9054 -193.11 22.9421 -196.849 22.9421C-200.568 22.9421 -203.604 19.9261 -203.604 16.1871C-203.604 12.4481 -200.588 9.43209 -196.849 9.43209ZM443.944 76.8786C447.663 76.8786 450.699 79.8946 450.699 83.6336C450.699 87.3519 447.683 90.3886 443.944 90.3886C440.226 90.3886 437.189 87.3726 437.189 83.6336C437.189 79.9153 440.226 76.8786 443.944 76.8786ZM443.944 43.1657C447.663 43.1657 450.699 46.1817 450.699 49.9207C450.699 53.639 447.683 56.6757 443.944 56.6757C440.226 56.6757 437.189 53.6597 437.189 49.9207C437.189 46.1817 440.226 43.1657 443.944 43.1657ZM376.498 76.8786C380.216 76.8786 383.253 79.8946 383.253 83.6336C383.253 87.3519 380.237 90.3886 376.498 90.3886C372.78 90.3886 369.764 87.3726 369.764 83.6336C369.743 79.9153 372.759 76.8786 376.498 76.8786ZM376.498 43.1657C380.216 43.1657 383.253 46.1817 383.253 49.9207C383.253 53.639 380.237 56.6757 376.498 56.6757C372.78 56.6757 369.764 53.6597 369.764 49.9207C369.743 46.1817 372.759 43.1657 376.498 43.1657ZM410.211 76.8786C413.929 76.8786 416.966 79.8946 416.966 83.6336C416.966 87.3519 413.95 90.3886 410.211 90.3886C406.492 90.3886 403.476 87.3726 403.476 83.6336C403.476 79.9153 406.492 76.8786 410.211 76.8786ZM410.211 43.1657C413.929 43.1657 416.966 46.1817 416.966 49.9207C416.966 53.639 413.95 56.6757 410.211 56.6757C406.492 56.6757 403.476 53.6597 403.476 49.9207C403.476 46.1817 406.492 43.1657 410.211 43.1657ZM309.031 76.8786C312.749 76.8786 315.765 79.8946 315.765 83.6336C315.765 87.3519 312.749 90.3886 309.031 90.3886C305.312 90.3886 302.276 87.3726 302.276 83.6336C302.296 79.9153 305.312 76.8786 309.031 76.8786ZM309.031 43.1657C312.749 43.1657 315.786 46.1817 315.786 49.9207C315.786 53.639 312.77 56.6757 309.031 56.6757C305.312 56.6757 302.276 53.6597 302.276 49.9207C302.296 46.1817 305.312 43.1657 309.031 43.1657ZM342.764 76.8786C346.483 76.8786 349.499 79.8946 349.499 83.6336C349.499 87.3519 346.483 90.3886 342.764 90.3886C339.046 90.3886 336.009 87.3726 336.009 83.6336C336.009 79.9153 339.046 76.8786 342.764 76.8786ZM342.764 43.1657C346.483 43.1657 349.499 46.1817 349.499 49.9207C349.499 53.639 346.483 56.6757 342.764 56.6757C339.046 56.6757 336.009 53.6597 336.009 49.9207C336.009 46.1817 339.046 43.1657 342.764 43.1657ZM241.584 76.8786C245.302 76.8786 248.339 79.8946 248.339 83.6336C248.339 87.3519 245.323 90.3886 241.584 90.3886C237.866 90.3886 234.829 87.3726 234.829 83.6336C234.85 79.9153 237.866 76.8786 241.584 76.8786ZM241.584 43.1657C245.302 43.1657 248.339 46.1817 248.339 49.9207C248.339 53.639 245.323 56.6757 241.584 56.6757C237.866 56.6757 234.829 53.6597 234.829 49.9207C234.85 46.1817 237.866 43.1657 241.584 43.1657ZM275.318 76.8786C279.036 76.8786 282.073 79.8946 282.073 83.6336C282.073 87.3519 279.057 90.3886 275.318 90.3886C271.599 90.3886 268.563 87.3726 268.563 83.6336C268.563 79.9153 271.579 76.8786 275.318 76.8786ZM275.318 43.1657C279.036 43.1657 282.073 46.1817 282.073 49.9207C282.073 53.639 279.057 56.6757 275.318 56.6757C271.599 56.6757 268.563 53.6597 268.563 49.9207C268.563 46.1817 271.579 43.1657 275.318 43.1657ZM174.138 76.8786C177.856 76.8786 180.893 79.8946 180.893 83.6336C180.893 87.3519 177.877 90.3886 174.138 90.3886C170.419 90.3886 167.383 87.3726 167.383 83.6336C167.383 79.9153 170.399 76.8786 174.138 76.8786ZM174.138 43.1657C177.856 43.1657 180.893 46.1817 180.893 49.9207C180.893 53.639 177.877 56.6757 174.138 56.6757C170.419 56.6757 167.383 53.6597 167.383 49.9207C167.383 46.1817 170.399 43.1657 174.138 43.1657ZM106.67 76.8786C110.389 76.8786 113.425 79.8946 113.425 83.6336C113.425 87.3519 110.409 90.3886 106.67 90.3886C102.952 90.3886 99.9154 87.3726 99.9154 83.6336C99.936 79.8946 102.952 76.8786 106.67 76.8786ZM106.67 43.1657C110.389 43.1657 113.425 46.1817 113.425 49.9207C113.425 53.639 110.409 56.655 106.67 56.655C102.952 56.655 99.9154 53.639 99.9154 49.9207C99.936 46.1817 102.952 43.1657 106.67 43.1657ZM140.404 76.8786C144.122 76.8786 147.159 79.8946 147.159 83.6336C147.159 87.3519 144.143 90.3886 140.404 90.3886C136.686 90.3886 133.649 87.3726 133.649 83.6336C133.67 79.8946 136.686 76.8786 140.404 76.8786ZM140.404 43.1657C144.122 43.1657 147.159 46.1817 147.159 49.9207C147.159 53.639 144.143 56.655 140.404 56.655C136.686 56.655 133.67 53.639 133.67 49.9207C133.67 46.1817 136.686 43.1657 140.404 43.1657ZM39.2238 76.8786C42.9422 76.8786 45.9788 79.8946 45.9788 83.6336C45.9788 87.3519 42.9628 90.3886 39.2238 90.3886C35.5055 90.3886 32.4688 87.3726 32.4688 83.6336C32.4895 79.8946 35.5055 76.8786 39.2238 76.8786ZM39.2238 43.1657C42.9422 43.1657 45.9788 46.1817 45.9788 49.9207C45.9788 53.639 42.9628 56.6757 39.2238 56.6757C35.5055 56.6757 32.4688 53.6597 32.4688 49.9207C32.4895 46.1817 35.5055 43.1657 39.2238 43.1657ZM72.9574 76.8786C76.6758 76.8786 79.7124 79.8946 79.7124 83.6336C79.7124 87.3519 76.6964 90.3886 72.9574 90.3886C69.2391 90.3886 66.2024 87.3726 66.2024 83.6336C66.2024 79.8946 69.2184 76.8786 72.9574 76.8786ZM72.9574 43.1657C76.6758 43.1657 79.7124 46.1817 79.7124 49.9207C79.7124 53.639 76.6964 56.6757 72.9574 56.6757C69.2391 56.6757 66.2024 53.6597 66.2024 49.9207C66.2024 46.1817 69.2184 43.1657 72.9574 43.1657ZM241.584 -24.3015C245.302 -24.3015 248.339 -21.2855 248.339 -17.5465C248.339 -13.8282 245.323 -10.7915 241.584 -10.7915C237.866 -10.7915 234.829 -13.8075 234.829 -17.5465C234.85 -21.2649 237.866 -24.3015 241.584 -24.3015ZM275.318 -24.3015C279.036 -24.3015 282.073 -21.2855 282.073 -17.5465C282.073 -13.8282 279.057 -10.7915 275.318 -10.7915C271.599 -10.7915 268.563 -13.8075 268.563 -17.5465C268.563 -21.2649 271.579 -24.3015 275.318 -24.3015ZM174.138 -24.3015C177.856 -24.3015 180.893 -21.2855 180.893 -17.5465C180.893 -13.8282 177.877 -10.7915 174.138 -10.7915C170.419 -10.7915 167.383 -13.8075 167.383 -17.5465C167.383 -21.2649 170.399 -24.3015 174.138 -24.3015ZM106.67 -24.3015C110.389 -24.3015 113.425 -21.2855 113.425 -17.5465C113.425 -13.8282 110.409 -10.7915 106.67 -10.7915C102.952 -10.7915 99.9154 -13.8075 99.9154 -17.5465C99.936 -21.2855 102.952 -24.3015 106.67 -24.3015ZM140.404 -24.3015C144.122 -24.3015 147.159 -21.2855 147.159 -17.5465C147.159 -13.8282 144.143 -10.7915 140.404 -10.7915C136.686 -10.7915 133.67 -13.8075 133.67 -17.5465C133.67 -21.2855 136.686 -24.3015 140.404 -24.3015ZM39.2238 -24.3015C42.9422 -24.3015 45.9788 -21.2855 45.9788 -17.5465C45.9788 -13.8282 42.9628 -10.7915 39.2238 -10.7915C35.5055 -10.7915 32.4688 -13.8075 32.4688 -17.5465C32.4895 -21.2855 35.5055 -24.3015 39.2238 -24.3015ZM72.9574 -24.3015C76.6758 -24.3015 79.7124 -21.2855 79.7124 -17.5465C79.7124 -13.8282 76.6964 -10.7915 72.9574 -10.7915C69.2391 -10.7915 66.2024 -13.8075 66.2024 -17.5465C66.2024 -21.2855 69.2184 -24.3015 72.9574 -24.3015ZM174.138 -91.748C177.856 -91.748 180.893 -88.7321 180.893 -84.9931C180.893 -81.2747 177.877 -78.2381 174.138 -78.2381C170.419 -78.2381 167.383 -81.2541 167.383 -84.9931C167.383 -88.7321 170.399 -91.748 174.138 -91.748ZM106.67 -91.748C110.389 -91.748 113.425 -88.7321 113.425 -84.9931C113.425 -81.2747 110.409 -78.2381 106.67 -78.2381C102.952 -78.2381 99.9154 -81.2541 99.9154 -84.9931C99.936 -88.7321 102.952 -91.748 106.67 -91.748ZM140.404 -91.748C144.122 -91.748 147.159 -88.7321 147.159 -84.9931C147.159 -81.2747 144.143 -78.2381 140.404 -78.2381C136.686 -78.2381 133.67 -81.2541 133.67 -84.9931C133.67 -88.7321 136.686 -91.748 140.404 -91.748ZM39.2238 -91.748C42.9422 -91.748 45.9788 -88.7321 45.9788 -84.9931C45.9788 -81.2747 42.9628 -78.2381 39.2238 -78.2381C35.5055 -78.2381 32.4688 -81.2541 32.4688 -84.9931C32.4895 -88.7321 35.5055 -91.748 39.2238 -91.748ZM72.9574 -91.748C76.6758 -91.748 79.7124 -88.7321 79.7124 -84.9931C79.7124 -81.2747 76.6964 -78.2381 72.9574 -78.2381C69.2391 -78.2381 66.2024 -81.2541 66.2024 -84.9931C66.2024 -88.7321 69.2184 -91.748 72.9574 -91.748ZM39.2238 -159.195C42.9422 -159.195 45.9788 -156.179 45.9788 -152.46C45.9788 -148.742 42.9628 -145.705 39.2238 -145.705C35.5055 -145.705 32.4688 -148.721 32.4688 -152.46C32.4895 -156.179 35.5055 -159.195 39.2238 -159.195ZM72.9574 -159.195C76.6758 -159.195 79.7124 -156.179 79.7124 -152.46C79.7124 -148.742 76.6964 -145.705 72.9574 -145.705C69.2391 -145.705 66.2024 -148.721 66.2024 -152.46C66.2024 -156.179 69.2184 -159.195 72.9574 -159.195ZM-28.2227 76.8786C-24.5044 76.8786 -21.4677 79.8946 -21.4677 83.6336C-21.4677 87.3519 -24.4837 90.3886 -28.2227 90.3886C-31.9617 90.3886 -34.9777 87.3726 -34.9777 83.6336C-34.9777 79.8946 -31.941 76.8786 -28.2227 76.8786ZM-28.2227 43.1657C-24.5044 43.1657 -21.4677 46.1817 -21.4677 49.9207C-21.4677 53.639 -24.4837 56.6757 -28.2227 56.6757C-31.941 56.6757 -34.9777 53.6597 -34.9777 49.9207C-34.9777 46.1817 -31.941 43.1657 -28.2227 43.1657ZM-95.6693 76.8786C-91.9509 76.8786 -88.9143 79.8946 -88.9143 83.6336C-88.9143 87.3519 -91.9303 90.3886 -95.6693 90.3886C-99.4082 90.3886 -102.424 87.3726 -102.424 83.6336C-102.424 79.8946 -99.4082 76.8786 -95.6693 76.8786ZM-95.6693 43.1657C-91.9509 43.1657 -88.9143 46.1817 -88.9143 49.9207C-88.9143 53.639 -91.9303 56.6757 -95.6693 56.6757C-99.4082 56.6757 -102.424 53.6597 -102.424 49.9207C-102.424 46.1817 -99.4082 43.1657 -95.6693 43.1657ZM-61.9563 76.8786C-58.238 76.8786 -55.2013 79.8946 -55.2013 83.6336C-55.2013 87.3519 -58.2173 90.3886 -61.9563 90.3886C-65.6746 90.3886 -68.7113 87.3726 -68.7113 83.6336C-68.6906 79.8946 -65.6746 76.8786 -61.9563 76.8786ZM-61.9563 43.1657C-58.238 43.1657 -55.2013 46.1817 -55.2013 49.9207C-55.2013 53.639 -58.2173 56.6757 -61.9563 56.6757C-65.6746 56.6757 -68.7113 53.6597 -68.7113 49.9207C-68.6906 46.1817 -65.6746 43.1657 -61.9563 43.1657ZM-163.136 43.145C-159.418 43.145 -156.381 46.161 -156.381 49.9C-156.381 53.6183 -159.397 56.655 -163.136 56.655C-166.855 56.655 -169.891 53.639 -169.891 49.9C-169.871 46.1817 -166.855 43.145 -163.136 43.145ZM-129.403 76.8786C-125.685 76.8786 -122.648 79.8946 -122.648 83.6336C-122.648 87.3519 -125.664 90.3886 -129.403 90.3886C-133.142 90.3886 -136.158 87.3726 -136.158 83.6336C-136.158 79.8946 -133.121 76.8786 -129.403 76.8786ZM-129.403 43.145C-125.685 43.145 -122.648 46.161 -122.648 49.9C-122.648 53.6183 -125.664 56.655 -129.403 56.655C-133.142 56.655 -136.158 53.639 -136.158 49.9C-136.158 46.1817 -133.121 43.145 -129.403 43.145ZM-28.2227 -24.3015C-24.5044 -24.3015 -21.4677 -21.2855 -21.4677 -17.5465C-21.4677 -13.8282 -24.4837 -10.7915 -28.2227 -10.7915C-31.941 -10.7915 -34.9777 -13.8075 -34.9777 -17.5465C-34.9777 -21.2855 -31.941 -24.3015 -28.2227 -24.3015ZM-95.6693 -24.3015C-91.9509 -24.3015 -88.9143 -21.2855 -88.9143 -17.5465C-88.9143 -13.8075 -91.9303 -10.7915 -95.6693 -10.7915C-99.3876 -10.7915 -102.424 -13.8075 -102.424 -17.5465C-102.424 -21.2855 -99.4082 -24.3015 -95.6693 -24.3015ZM-61.9563 -24.3015C-58.238 -24.3015 -55.2013 -21.2855 -55.2013 -17.5465C-55.2013 -13.8075 -58.2173 -10.7915 -61.9563 -10.7915C-65.6746 -10.7915 -68.7113 -13.8075 -68.7113 -17.5465C-68.7113 -21.2855 -65.6746 -24.3015 -61.9563 -24.3015ZM-163.136 -24.3015C-159.418 -24.3015 -156.381 -21.2855 -156.381 -17.5465C-156.381 -13.8282 -159.397 -10.7915 -163.136 -10.7915C-166.855 -10.7915 -169.891 -13.8075 -169.891 -17.5465C-169.871 -21.2855 -166.855 -24.3015 -163.136 -24.3015ZM-129.403 -24.3015C-125.685 -24.3015 -122.648 -21.2855 -122.648 -17.5465C-122.648 -13.8282 -125.664 -10.7915 -129.403 -10.7915C-133.121 -10.7915 -136.137 -13.8075 -136.137 -17.5465C-136.158 -21.2855 -133.121 -24.3015 -129.403 -24.3015ZM-196.849 -24.3015C-193.131 -24.3015 -190.094 -21.2855 -190.094 -17.5465C-190.094 -13.8282 -193.11 -10.7915 -196.849 -10.7915C-200.588 -10.8122 -203.604 -13.8282 -203.604 -17.5465C-203.604 -21.2855 -200.588 -24.3015 -196.849 -24.3015ZM-28.2227 -91.748C-24.5044 -91.748 -21.4677 -88.7321 -21.4677 -84.9931C-21.4677 -81.2747 -24.4837 -78.2381 -28.2227 -78.2381C-31.941 -78.2381 -34.9777 -81.2541 -34.9777 -84.9931C-34.9777 -88.7321 -31.941 -91.748 -28.2227 -91.748ZM-61.9563 -91.748C-58.238 -91.748 -55.2013 -88.7321 -55.2013 -84.9931C-55.2013 -81.2747 -58.2173 -78.2381 -61.9563 -78.2381C-65.6746 -78.2381 -68.7113 -81.2541 -68.7113 -84.9931C-68.6906 -88.7321 -65.6746 -91.748 -61.9563 -91.748ZM-28.2227 -159.195C-24.5044 -159.195 -21.4677 -156.179 -21.4677 -152.46C-21.4677 -148.742 -24.4837 -145.705 -28.2227 -145.705C-31.9617 -145.705 -34.9777 -148.721 -34.9777 -152.46C-34.9777 -156.179 -31.9617 -159.195 -28.2227 -159.195ZM-61.9563 -159.195C-58.238 -159.195 -55.2013 -156.179 -55.2013 -152.44C-55.2013 -148.721 -58.2173 -145.685 -61.9563 -145.685C-65.6746 -145.685 -68.7113 -148.701 -68.7113 -152.44C-68.6906 -156.179 -65.6746 -159.195 -61.9563 -159.195ZM511.391 144.346C515.109 144.346 518.125 147.362 518.125 151.101C518.125 154.819 515.109 157.856 511.391 157.856C507.673 157.856 504.636 154.84 504.636 151.101C504.657 147.362 507.673 144.346 511.391 144.346ZM443.944 144.346C447.663 144.346 450.699 147.362 450.699 151.101C450.699 154.819 447.683 157.856 443.944 157.856C440.226 157.856 437.189 154.84 437.189 151.101C437.189 147.362 440.226 144.346 443.944 144.346ZM477.678 144.346C481.396 144.346 484.433 147.362 484.433 151.101C484.433 154.819 481.417 157.856 477.678 157.856C473.96 157.856 470.944 154.84 470.944 151.101C470.923 147.362 473.939 144.346 477.678 144.346ZM376.498 144.346C380.216 144.346 383.253 147.362 383.253 151.101C383.253 154.819 380.237 157.835 376.498 157.835C372.78 157.835 369.764 154.819 369.764 151.101C369.743 147.362 372.759 144.346 376.498 144.346ZM410.211 144.346C413.929 144.346 416.966 147.362 416.966 151.101C416.966 154.819 413.95 157.835 410.211 157.835C406.492 157.835 403.476 154.819 403.476 151.101C403.476 147.362 406.492 144.346 410.211 144.346ZM309.031 144.346C312.749 144.346 315.765 147.362 315.765 151.101C315.765 154.819 312.749 157.856 309.031 157.856C305.312 157.856 302.276 154.84 302.276 151.101C302.296 147.362 305.312 144.346 309.031 144.346ZM342.764 144.346C346.483 144.346 349.499 147.362 349.499 151.101C349.499 154.819 346.483 157.856 342.764 157.856C339.046 157.856 336.009 154.84 336.009 151.101C336.009 147.362 339.046 144.346 342.764 144.346ZM241.584 144.346C245.302 144.346 248.339 147.362 248.339 151.101C248.339 154.819 245.323 157.856 241.584 157.856C237.866 157.856 234.829 154.84 234.829 151.101C234.85 147.362 237.866 144.346 241.584 144.346ZM275.318 144.346C279.036 144.346 282.073 147.362 282.073 151.101C282.073 154.819 279.057 157.856 275.318 157.856C271.599 157.856 268.563 154.84 268.563 151.101C268.563 147.362 271.579 144.346 275.318 144.346ZM174.138 144.346C177.856 144.346 180.893 147.362 180.893 151.101C180.893 154.819 177.877 157.856 174.138 157.856C170.419 157.856 167.383 154.84 167.383 151.101C167.383 147.362 170.399 144.346 174.138 144.346ZM106.67 144.346C110.389 144.346 113.425 147.362 113.425 151.101C113.425 154.819 110.409 157.856 106.67 157.856C102.952 157.856 99.9154 154.84 99.9154 151.101C99.936 147.362 102.952 144.346 106.67 144.346ZM140.404 144.346C144.122 144.346 147.159 147.362 147.159 151.101C147.159 154.819 144.143 157.856 140.404 157.856C136.686 157.856 133.649 154.84 133.649 151.101C133.67 147.362 136.686 144.346 140.404 144.346ZM39.2238 144.346C42.9422 144.346 45.9788 147.362 45.9788 151.101C45.9788 154.819 42.9628 157.856 39.2238 157.856C35.5055 157.856 32.4688 154.84 32.4688 151.101C32.4895 147.362 35.5055 144.346 39.2238 144.346ZM72.9574 144.346C76.6758 144.346 79.7124 147.362 79.7124 151.101C79.7124 154.819 76.6964 157.856 72.9574 157.856C69.2391 157.856 66.2024 154.84 66.2024 151.101C66.2024 147.362 69.2184 144.346 72.9574 144.346ZM-28.2227 144.346C-24.5044 144.346 -21.4677 147.362 -21.4677 151.101C-21.4677 154.819 -24.4837 157.856 -28.2227 157.856C-31.9617 157.856 -34.9777 154.84 -34.9777 151.101C-34.9777 147.362 -31.941 144.346 -28.2227 144.346ZM-95.6693 144.346C-91.9509 144.346 -88.9143 147.362 -88.9143 151.101C-88.9143 154.819 -91.9303 157.856 -95.6693 157.856C-99.3876 157.856 -102.424 154.84 -102.424 151.101C-102.424 147.362 -99.4082 144.346 -95.6693 144.346ZM-61.9563 144.346C-58.238 144.346 -55.2013 147.362 -55.2013 151.101C-55.2013 154.819 -58.2173 157.856 -61.9563 157.856C-65.6746 157.856 -68.7113 154.84 -68.7113 151.101C-68.6906 147.362 -65.6746 144.346 -61.9563 144.346ZM511.391 211.792C515.109 211.792 518.125 214.808 518.125 218.547C518.125 222.266 515.109 225.282 511.391 225.282C507.673 225.282 504.636 222.266 504.636 218.547C504.657 214.808 507.673 211.792 511.391 211.792ZM545.125 211.792C548.843 211.792 551.879 214.808 551.879 218.547C551.879 222.266 548.864 225.282 545.125 225.282C541.406 225.282 538.37 222.266 538.37 218.547C538.37 214.808 541.406 211.792 545.125 211.792ZM443.944 211.792C447.663 211.792 450.699 214.808 450.699 218.547C450.699 222.266 447.683 225.302 443.944 225.302C440.226 225.302 437.189 222.286 437.189 218.547C437.189 214.808 440.226 211.792 443.944 211.792ZM477.678 211.792C481.396 211.792 484.433 214.808 484.433 218.547C484.433 222.266 481.417 225.302 477.678 225.302C473.96 225.302 470.944 222.286 470.944 218.547C470.923 214.808 473.939 211.792 477.678 211.792ZM376.498 211.792C380.216 211.792 383.253 214.808 383.253 218.547C383.253 222.266 380.237 225.302 376.498 225.302C372.78 225.302 369.764 222.286 369.764 218.547C369.743 214.808 372.759 211.792 376.498 211.792ZM410.211 211.792C413.929 211.792 416.966 214.808 416.966 218.547C416.966 222.266 413.95 225.302 410.211 225.302C406.492 225.302 403.476 222.286 403.476 218.547C403.476 214.808 406.492 211.792 410.211 211.792ZM309.031 211.792C312.749 211.792 315.765 214.808 315.765 218.547C315.765 222.266 312.749 225.302 309.031 225.302C305.312 225.302 302.276 222.286 302.276 218.547C302.296 214.808 305.312 211.792 309.031 211.792ZM342.764 211.792C346.483 211.792 349.499 214.808 349.499 218.547C349.499 222.266 346.483 225.302 342.764 225.302C339.046 225.302 336.009 222.286 336.009 218.547C336.009 214.808 339.046 211.792 342.764 211.792ZM241.584 211.792C245.302 211.792 248.339 214.808 248.339 218.547C248.339 222.266 245.323 225.302 241.584 225.302C237.866 225.302 234.829 222.286 234.829 218.547C234.85 214.808 237.866 211.792 241.584 211.792ZM275.318 211.792C279.036 211.792 282.073 214.808 282.073 218.547C282.073 222.266 279.057 225.302 275.318 225.302C271.599 225.302 268.563 222.286 268.563 218.547C268.563 214.808 271.579 211.792 275.318 211.792ZM174.138 211.792C177.856 211.792 180.893 214.808 180.893 218.547C180.893 222.266 177.877 225.302 174.138 225.302C170.419 225.302 167.383 222.286 167.383 218.547C167.383 214.808 170.399 211.792 174.138 211.792ZM106.67 211.792C110.389 211.792 113.425 214.808 113.425 218.547C113.425 222.266 110.409 225.302 106.67 225.302C102.952 225.302 99.9154 222.286 99.9154 218.547C99.936 214.808 102.952 211.792 106.67 211.792ZM140.404 211.792C144.122 211.792 147.159 214.808 147.159 218.547C147.159 222.266 144.143 225.302 140.404 225.302C136.686 225.302 133.649 222.286 133.649 218.547C133.67 214.808 136.686 211.792 140.404 211.792ZM39.2238 211.792C42.9422 211.792 45.9788 214.808 45.9788 218.547C45.9788 222.266 42.9628 225.302 39.2238 225.302C35.5055 225.302 32.4688 222.286 32.4688 218.547C32.4895 214.808 35.5055 211.792 39.2238 211.792ZM72.9574 211.792C76.6758 211.792 79.7124 214.808 79.7124 218.547C79.7124 222.266 76.6964 225.302 72.9574 225.302C69.2391 225.302 66.2024 222.286 66.2024 218.547C66.2024 214.808 69.2184 211.792 72.9574 211.792ZM-28.2227 211.792C-24.5044 211.792 -21.4677 214.808 -21.4677 218.547C-21.4677 222.266 -24.4837 225.302 -28.2227 225.302C-31.9617 225.302 -34.9777 222.286 -34.9777 218.547C-34.9777 214.808 -31.941 211.792 -28.2227 211.792ZM-61.9563 211.792C-58.238 211.792 -55.2013 214.808 -55.2013 218.547C-55.2013 222.266 -58.2173 225.302 -61.9563 225.302C-65.6746 225.302 -68.7113 222.286 -68.7113 218.547C-68.6906 214.808 -65.6746 211.792 -61.9563 211.792ZM511.391 279.239C515.109 279.239 518.146 282.255 518.146 285.994C518.146 289.712 515.13 292.749 511.391 292.749C507.673 292.749 504.636 289.733 504.636 285.994C504.657 282.276 507.673 279.239 511.391 279.239ZM545.125 279.239C548.843 279.239 551.879 282.255 551.879 285.994C551.879 289.712 548.864 292.749 545.125 292.749C541.406 292.749 538.37 289.733 538.37 285.994C538.37 282.276 541.406 279.239 545.125 279.239ZM443.944 279.239C447.663 279.239 450.699 282.255 450.699 285.994C450.699 289.712 447.683 292.749 443.944 292.749C440.226 292.749 437.189 289.733 437.189 285.994C437.189 282.276 440.226 279.239 443.944 279.239ZM477.678 279.239C481.396 279.239 484.433 282.255 484.433 285.994C484.433 289.712 481.417 292.749 477.678 292.749C473.96 292.749 470.944 289.733 470.944 285.994C470.923 282.276 473.939 279.239 477.678 279.239ZM376.498 279.239C380.216 279.239 383.253 282.255 383.253 285.994C383.253 289.712 380.237 292.728 376.498 292.728C372.78 292.728 369.764 289.712 369.764 285.994C369.743 282.276 372.759 279.239 376.498 279.239ZM410.211 279.239C413.929 279.239 416.945 282.255 416.945 285.994C416.945 289.712 413.929 292.728 410.211 292.728C406.492 292.728 403.456 289.712 403.456 285.994C403.476 282.276 406.492 279.239 410.211 279.239ZM309.031 279.239C312.749 279.239 315.765 282.255 315.765 285.973C315.765 289.692 312.749 292.728 309.031 292.728C305.312 292.728 302.276 289.712 302.276 285.973C302.296 282.255 305.312 279.239 309.031 279.239ZM342.764 279.239C346.483 279.239 349.499 282.255 349.499 285.973C349.499 289.692 346.483 292.728 342.764 292.728C339.046 292.728 336.009 289.712 336.009 285.973C336.009 282.255 339.046 279.239 342.764 279.239ZM241.584 279.239C245.302 279.239 248.339 282.255 248.339 285.994C248.339 289.712 245.323 292.749 241.584 292.749C237.866 292.749 234.829 289.733 234.829 285.994C234.85 282.255 237.866 279.239 241.584 279.239ZM275.318 279.239C279.036 279.239 282.073 282.255 282.073 285.994C282.073 289.712 279.057 292.749 275.318 292.749C271.599 292.749 268.563 289.733 268.563 285.994C268.563 282.255 271.579 279.239 275.318 279.239ZM174.138 279.239C177.856 279.239 180.893 282.255 180.893 285.994C180.893 289.712 177.877 292.728 174.138 292.728C170.419 292.728 167.383 289.712 167.383 285.994C167.383 282.255 170.399 279.239 174.138 279.239ZM106.67 279.239C110.389 279.239 113.425 282.255 113.425 285.994C113.425 289.712 110.409 292.728 106.67 292.728C102.952 292.728 99.9154 289.712 99.9154 285.994C99.936 282.255 102.952 279.239 106.67 279.239ZM140.404 279.239C144.122 279.239 147.159 282.255 147.159 285.994C147.159 289.712 144.143 292.728 140.404 292.728C136.686 292.728 133.649 289.712 133.649 285.994C133.67 282.255 136.686 279.239 140.404 279.239ZM39.2238 279.239C42.9422 279.239 45.9788 282.255 45.9788 285.994C45.9788 289.712 42.9628 292.749 39.2238 292.749C35.5055 292.749 32.4688 289.733 32.4688 285.994C32.4895 282.255 35.5055 279.239 39.2238 279.239ZM72.9574 279.239C76.6758 279.239 79.7124 282.255 79.7124 285.994C79.7124 289.712 76.6964 292.749 72.9574 292.749C69.2391 292.749 66.2024 289.733 66.2024 285.994C66.2024 282.255 69.2184 279.239 72.9574 279.239ZM511.391 346.706C515.109 346.706 518.146 349.722 518.146 353.44C518.146 357.159 515.13 360.195 511.391 360.195C507.673 360.195 504.636 357.179 504.636 353.44C504.657 349.722 507.673 346.706 511.391 346.706ZM511.391 312.973C515.109 312.973 518.125 315.989 518.125 319.728C518.125 323.446 515.109 326.462 511.391 326.462C507.673 326.462 504.636 323.446 504.636 319.728C504.657 315.989 507.673 312.973 511.391 312.973ZM545.125 346.706C548.843 346.706 551.879 349.722 551.879 353.44C551.879 357.159 548.864 360.195 545.125 360.195C541.406 360.195 538.37 357.179 538.37 353.44C538.37 349.722 541.406 346.706 545.125 346.706ZM545.125 312.973C548.843 312.973 551.879 315.989 551.879 319.728C551.879 323.446 548.864 326.462 545.125 326.462C541.406 326.462 538.37 323.446 538.37 319.728C538.37 315.989 541.406 312.973 545.125 312.973ZM443.944 346.706C447.663 346.706 450.699 349.722 450.699 353.461C450.699 357.179 447.683 360.195 443.944 360.195C440.226 360.195 437.189 357.179 437.189 353.461C437.189 349.722 440.226 346.706 443.944 346.706ZM443.944 312.973C447.663 312.973 450.699 315.989 450.699 319.728C450.699 323.446 447.683 326.482 443.944 326.482C440.226 326.482 437.189 323.466 437.189 319.728C437.189 315.989 440.226 312.973 443.944 312.973ZM477.678 346.706C481.396 346.706 484.433 349.722 484.433 353.461C484.433 357.179 481.417 360.195 477.678 360.195C473.96 360.195 470.944 357.179 470.944 353.461C470.923 349.722 473.939 346.706 477.678 346.706ZM477.678 312.973C481.396 312.973 484.433 315.989 484.433 319.728C484.433 323.446 481.417 326.482 477.678 326.482C473.96 326.482 470.944 323.466 470.944 319.728C470.923 315.989 473.939 312.973 477.678 312.973ZM376.498 346.706C380.216 346.706 383.253 349.722 383.253 353.44C383.253 357.159 380.237 360.195 376.498 360.195C372.78 360.195 369.764 357.179 369.764 353.44C369.743 349.722 372.759 346.706 376.498 346.706ZM376.498 312.973C380.216 312.973 383.253 315.989 383.253 319.728C383.253 323.446 380.237 326.462 376.498 326.462C372.78 326.462 369.764 323.446 369.764 319.728C369.743 315.989 372.759 312.973 376.498 312.973ZM410.211 346.706C413.929 346.706 416.945 349.722 416.945 353.44C416.945 357.159 413.929 360.195 410.211 360.195C406.492 360.195 403.456 357.179 403.456 353.44C403.476 349.722 406.492 346.706 410.211 346.706ZM410.211 312.973C413.929 312.973 416.966 315.989 416.966 319.728C416.966 323.446 413.95 326.462 410.211 326.462C406.492 326.462 403.476 323.446 403.476 319.728C403.476 315.989 406.492 312.973 410.211 312.973ZM309.031 346.706C312.749 346.706 315.765 349.722 315.765 353.461C315.765 357.179 312.749 360.216 309.031 360.216C305.312 360.216 302.276 357.2 302.276 353.461C302.296 349.722 305.312 346.706 309.031 346.706ZM309.031 312.973C312.749 312.973 315.786 315.989 315.786 319.728C315.786 323.446 312.77 326.462 309.031 326.462C305.312 326.462 302.296 323.446 302.296 319.728C302.296 315.989 305.312 312.973 309.031 312.973ZM342.764 346.706C346.483 346.706 349.499 349.722 349.499 353.461C349.499 357.179 346.483 360.216 342.764 360.216C339.046 360.216 336.009 357.2 336.009 353.461C336.009 349.722 339.046 346.706 342.764 346.706ZM342.764 312.973C346.483 312.973 349.499 315.989 349.499 319.728C349.499 323.446 346.483 326.462 342.764 326.462C339.046 326.462 336.009 323.446 336.009 319.728C336.009 315.989 339.046 312.973 342.764 312.973ZM241.584 346.706C245.302 346.706 248.339 349.722 248.339 353.461C248.339 357.179 245.323 360.195 241.584 360.195C237.866 360.195 234.829 357.179 234.829 353.461C234.85 349.722 237.866 346.706 241.584 346.706ZM241.584 312.973C245.302 312.973 248.339 315.989 248.339 319.728C248.339 323.446 245.323 326.482 241.584 326.482C237.866 326.482 234.829 323.466 234.829 319.728C234.85 315.989 237.866 312.973 241.584 312.973ZM275.318 346.706C279.036 346.706 282.073 349.722 282.073 353.461C282.073 357.179 279.057 360.195 275.318 360.195C271.599 360.195 268.563 357.179 268.563 353.461C268.563 349.722 271.579 346.706 275.318 346.706ZM275.318 312.973C279.036 312.973 282.073 315.989 282.073 319.728C282.073 323.446 279.057 326.482 275.318 326.482C271.599 326.482 268.563 323.466 268.563 319.728C268.563 315.989 271.579 312.973 275.318 312.973ZM174.138 346.706C177.856 346.706 180.893 349.722 180.893 353.44C180.893 357.159 177.877 360.195 174.138 360.195C170.419 360.195 167.383 357.179 167.383 353.44C167.383 349.722 170.399 346.706 174.138 346.706ZM174.138 312.973C177.856 312.973 180.893 315.989 180.893 319.728C180.893 323.446 177.877 326.482 174.138 326.482C170.419 326.482 167.383 323.466 167.383 319.728C167.383 315.989 170.399 312.973 174.138 312.973ZM106.67 346.685C110.389 346.685 113.425 349.701 113.425 353.44C113.425 357.159 110.409 360.195 106.67 360.195C102.952 360.195 99.9154 357.179 99.9154 353.44C99.936 349.722 102.952 346.685 106.67 346.685ZM106.67 312.973C110.389 312.973 113.425 315.989 113.425 319.728C113.425 323.446 110.409 326.462 106.67 326.462C102.952 326.462 99.9154 323.446 99.9154 319.728C99.936 315.989 102.952 312.973 106.67 312.973ZM140.404 346.685C144.122 346.685 147.159 349.701 147.159 353.44C147.159 357.159 144.143 360.195 140.404 360.195C136.686 360.195 133.649 357.179 133.649 353.44C133.67 349.722 136.686 346.685 140.404 346.685ZM140.404 312.973C144.122 312.973 147.159 315.989 147.159 319.728C147.159 323.446 144.143 326.462 140.404 326.462C136.686 326.462 133.649 323.446 133.649 319.728C133.67 315.989 136.686 312.973 140.404 312.973ZM39.2238 346.685C42.9422 346.685 45.9788 349.701 45.9788 353.44C45.9788 357.159 42.9628 360.175 39.2238 360.175C35.5055 360.175 32.4688 357.159 32.4688 353.44C32.4895 349.722 35.5055 346.685 39.2238 346.685ZM39.2238 312.973C42.9422 312.973 45.9788 315.988 45.9788 319.707C45.9788 323.425 42.9628 326.462 39.2238 326.462C35.5055 326.462 32.4688 323.446 32.4688 319.707C32.4895 315.988 35.5055 312.973 39.2238 312.973ZM72.9574 346.685C76.6758 346.685 79.7124 349.701 79.7124 353.44C79.7124 357.159 76.6964 360.175 72.9574 360.175C69.2391 360.175 66.2024 357.159 66.2024 353.44C66.2024 349.722 69.2391 346.685 72.9574 346.685ZM72.9574 312.973C76.6758 312.973 79.7124 315.988 79.7124 319.707C79.7124 323.425 76.6964 326.462 72.9574 326.462C69.2391 326.462 66.2024 323.446 66.2024 319.707C66.2024 315.988 69.2184 312.973 72.9574 312.973ZM511.391 245.526C515.109 245.526 518.125 248.542 518.125 252.281C518.125 255.999 515.109 259.015 511.391 259.015C507.673 259.015 504.636 255.999 504.636 252.281C504.657 248.542 507.673 245.526 511.391 245.526ZM545.125 245.526C548.843 245.526 551.879 248.542 551.879 252.281C551.879 255.999 548.864 259.015 545.125 259.015C541.406 259.015 538.37 255.999 538.37 252.281C538.37 248.542 541.406 245.526 545.125 245.526ZM443.944 245.526C447.663 245.526 450.699 248.542 450.699 252.26C450.699 255.979 447.683 259.015 443.944 259.015C440.226 259.015 437.189 255.999 437.189 252.26C437.189 248.542 440.226 245.526 443.944 245.526ZM477.678 245.526C481.396 245.526 484.433 248.542 484.433 252.26C484.433 255.979 481.417 259.015 477.678 259.015C473.96 259.015 470.923 255.999 470.923 252.26C470.923 248.542 473.939 245.526 477.678 245.526ZM376.498 245.526C380.216 245.526 383.253 248.542 383.253 252.281C383.253 255.999 380.237 259.036 376.498 259.036C372.78 259.036 369.764 256.02 369.764 252.281C369.743 248.542 372.759 245.526 376.498 245.526ZM410.211 245.526C413.929 245.526 416.966 248.542 416.966 252.281C416.966 255.999 413.95 259.036 410.211 259.036C406.492 259.036 403.476 256.02 403.476 252.281C403.476 248.542 406.492 245.526 410.211 245.526ZM309.031 245.526C312.749 245.526 315.786 248.542 315.786 252.281C315.786 255.999 312.77 259.015 309.031 259.015C305.312 259.015 302.296 255.999 302.296 252.281C302.296 248.542 305.312 245.526 309.031 245.526ZM342.764 245.526C346.483 245.526 349.499 248.542 349.499 252.281C349.499 255.999 346.483 259.015 342.764 259.015C339.046 259.015 336.009 255.999 336.009 252.281C336.009 248.542 339.046 245.526 342.764 245.526ZM241.584 245.526C245.302 245.526 248.339 248.542 248.339 252.281C248.339 255.999 245.323 259.015 241.584 259.015C237.866 259.015 234.829 255.999 234.829 252.281C234.85 248.542 237.866 245.526 241.584 245.526ZM275.318 245.526C279.036 245.526 282.073 248.542 282.073 252.281C282.073 255.999 279.057 259.015 275.318 259.015C271.599 259.015 268.563 255.999 268.563 252.281C268.563 248.542 271.579 245.526 275.318 245.526ZM174.138 245.505C177.856 245.505 180.893 248.521 180.893 252.26C180.893 255.979 177.877 259.015 174.138 259.015C170.419 259.015 167.383 255.999 167.383 252.26C167.383 248.542 170.399 245.505 174.138 245.505ZM106.67 245.505C110.389 245.505 113.425 248.521 113.425 252.26C113.425 255.979 110.409 259.015 106.67 259.015C102.952 259.015 99.9154 255.999 99.9154 252.26C99.936 248.542 102.952 245.505 106.67 245.505ZM140.404 245.505C144.122 245.505 147.159 248.521 147.159 252.26C147.159 255.979 144.143 259.015 140.404 259.015C136.686 259.015 133.649 255.999 133.649 252.26C133.67 248.542 136.686 245.505 140.404 245.505ZM39.2238 245.505C42.9422 245.505 45.9788 248.521 45.9788 252.24C45.9788 255.958 42.9628 258.995 39.2238 258.995C35.5055 258.995 32.4688 255.979 32.4688 252.24C32.4895 248.542 35.5055 245.505 39.2238 245.505ZM72.9574 245.505C76.6758 245.505 79.7124 248.521 79.7124 252.24C79.7124 255.958 76.6964 258.995 72.9574 258.995C69.2391 258.995 66.2024 255.979 66.2024 252.24C66.2024 248.542 69.2184 245.505 72.9574 245.505ZM511.391 178.059C515.109 178.059 518.125 181.075 518.125 184.814C518.125 188.532 515.109 191.569 511.391 191.569C507.673 191.569 504.636 188.553 504.636 184.814C504.657 181.095 507.673 178.059 511.391 178.059ZM443.944 178.059C447.663 178.059 450.699 181.075 450.699 184.814C450.699 188.532 447.683 191.569 443.944 191.569C440.226 191.569 437.189 188.553 437.189 184.814C437.189 181.095 440.226 178.059 443.944 178.059ZM477.678 178.059C481.396 178.059 484.433 181.075 484.433 184.814C484.433 188.532 481.417 191.569 477.678 191.569C473.96 191.569 470.923 188.553 470.923 184.814C470.923 181.095 473.939 178.059 477.678 178.059ZM376.498 178.059C380.216 178.059 383.253 181.075 383.253 184.814C383.253 188.553 380.237 191.569 376.498 191.569C372.78 191.569 369.764 188.553 369.764 184.814C369.764 181.075 372.759 178.059 376.498 178.059ZM410.211 178.059C413.929 178.059 416.966 181.075 416.966 184.814C416.966 188.553 413.95 191.569 410.211 191.569C406.492 191.569 403.476 188.553 403.476 184.814C403.476 181.075 406.492 178.059 410.211 178.059ZM309.031 178.059C312.749 178.059 315.786 181.075 315.786 184.814C315.786 188.532 312.77 191.569 309.031 191.569C305.312 191.569 302.296 188.553 302.296 184.814C302.296 181.095 305.312 178.059 309.031 178.059ZM342.764 178.059C346.483 178.059 349.499 181.075 349.499 184.814C349.499 188.532 346.483 191.569 342.764 191.569C339.046 191.569 336.009 188.553 336.009 184.814C336.009 181.095 339.046 178.059 342.764 178.059ZM241.584 178.059C245.302 178.059 248.339 181.075 248.339 184.814C248.339 188.532 245.323 191.569 241.584 191.569C237.866 191.569 234.829 188.553 234.829 184.814C234.85 181.075 237.866 178.059 241.584 178.059ZM275.318 178.059C279.036 178.059 282.073 181.075 282.073 184.814C282.073 188.532 279.057 191.569 275.318 191.569C271.599 191.569 268.563 188.553 268.563 184.814C268.563 181.075 271.579 178.059 275.318 178.059ZM174.138 178.059C177.856 178.059 180.893 181.075 180.893 184.814C180.893 188.532 177.877 191.569 174.138 191.569C170.419 191.569 167.383 188.553 167.383 184.814C167.383 181.075 170.399 178.059 174.138 178.059ZM106.67 178.059C110.389 178.059 113.425 181.075 113.425 184.814C113.425 188.532 110.409 191.569 106.67 191.569C102.952 191.569 99.9154 188.553 99.9154 184.814C99.936 181.075 102.952 178.059 106.67 178.059ZM140.404 178.059C144.122 178.059 147.159 181.075 147.159 184.814C147.159 188.532 144.143 191.569 140.404 191.569C136.686 191.569 133.649 188.553 133.649 184.814C133.67 181.075 136.686 178.059 140.404 178.059ZM39.2238 178.059C42.9422 178.059 45.9788 181.075 45.9788 184.814C45.9788 188.532 42.9628 191.569 39.2238 191.569C35.5055 191.569 32.4688 188.553 32.4688 184.814C32.4895 181.075 35.5055 178.059 39.2238 178.059ZM72.9574 178.059C76.6758 178.059 79.7124 181.075 79.7124 184.814C79.7124 188.532 76.6964 191.569 72.9574 191.569C69.2391 191.569 66.2024 188.553 66.2024 184.814C66.2024 181.075 69.2184 178.059 72.9574 178.059ZM443.944 110.612C447.663 110.612 450.699 113.628 450.699 117.367C450.699 121.086 447.683 124.122 443.944 124.122C440.226 124.122 437.189 121.106 437.189 117.367C437.189 113.628 440.226 110.612 443.944 110.612ZM477.678 110.612C481.396 110.612 484.433 113.628 484.433 117.367C484.433 121.086 481.417 124.122 477.678 124.122C473.96 124.122 470.923 121.106 470.923 117.367C470.923 113.628 473.939 110.612 477.678 110.612ZM376.498 110.612C380.216 110.612 383.253 113.628 383.253 117.367C383.253 121.086 380.237 124.122 376.498 124.122C372.78 124.122 369.764 121.106 369.764 117.367C369.743 113.628 372.759 110.612 376.498 110.612ZM410.211 110.612C413.929 110.612 416.966 113.628 416.966 117.367C416.966 121.086 413.95 124.122 410.211 124.122C406.492 124.122 403.476 121.106 403.476 117.367C403.476 113.628 406.492 110.612 410.211 110.612ZM309.031 110.612C312.749 110.612 315.786 113.628 315.786 117.367C315.786 121.086 312.77 124.122 309.031 124.122C305.312 124.122 302.276 121.106 302.276 117.367C302.296 113.628 305.312 110.612 309.031 110.612ZM342.764 110.612C346.483 110.612 349.499 113.628 349.499 117.367C349.499 121.086 346.483 124.122 342.764 124.122C339.046 124.122 336.009 121.106 336.009 117.367C336.009 113.628 339.046 110.612 342.764 110.612ZM241.584 110.612C245.302 110.612 248.339 113.628 248.339 117.367C248.339 121.086 245.323 124.122 241.584 124.122C237.866 124.122 234.829 121.106 234.829 117.367C234.85 113.628 237.866 110.612 241.584 110.612ZM275.318 110.612C279.036 110.612 282.073 113.628 282.073 117.367C282.073 121.086 279.057 124.122 275.318 124.122C271.599 124.122 268.563 121.106 268.563 117.367C268.563 113.628 271.579 110.612 275.318 110.612ZM174.138 110.612C177.856 110.612 180.893 113.628 180.893 117.367C180.893 121.086 177.877 124.122 174.138 124.122C170.419 124.122 167.383 121.106 167.383 117.367C167.383 113.628 170.399 110.612 174.138 110.612ZM106.67 110.612C110.389 110.612 113.425 113.628 113.425 117.367C113.425 121.086 110.409 124.122 106.67 124.122C102.952 124.122 99.9154 121.106 99.9154 117.367C99.936 113.628 102.952 110.612 106.67 110.612ZM140.404 110.612C144.122 110.612 147.159 113.628 147.159 117.367C147.159 121.086 144.143 124.122 140.404 124.122C136.686 124.122 133.649 121.106 133.649 117.367C133.67 113.628 136.686 110.612 140.404 110.612ZM39.2238 110.612C42.9422 110.612 45.9788 113.628 45.9788 117.367C45.9788 121.086 42.9628 124.122 39.2238 124.122C35.5055 124.122 32.4688 121.106 32.4688 117.367C32.4895 113.628 35.5055 110.612 39.2238 110.612ZM72.9574 110.612C76.6758 110.612 79.7124 113.628 79.7124 117.367C79.7124 121.086 76.6964 124.122 72.9574 124.122C69.2391 124.122 66.2024 121.106 66.2024 117.367C66.2024 113.628 69.2184 110.612 72.9574 110.612ZM-28.2227 245.505C-24.5044 245.505 -21.4677 248.521 -21.4677 252.24C-21.4677 255.958 -24.4837 258.995 -28.2227 258.995C-31.941 258.995 -34.9777 255.979 -34.9777 252.24C-34.9777 248.542 -31.941 245.505 -28.2227 245.505ZM-28.2227 178.059C-24.5044 178.059 -21.4677 181.075 -21.4677 184.814C-21.4677 188.532 -24.4837 191.569 -28.2227 191.569C-31.941 191.569 -34.9777 188.553 -34.9777 184.814C-34.9777 181.075 -31.941 178.059 -28.2227 178.059ZM-61.9563 178.059C-58.238 178.059 -55.2013 181.075 -55.2013 184.814C-55.2013 188.532 -58.2173 191.569 -61.9563 191.569C-65.6746 191.569 -68.7113 188.553 -68.7113 184.814C-68.6906 181.075 -65.6746 178.059 -61.9563 178.059ZM-28.2227 110.612C-24.5044 110.612 -21.4677 113.628 -21.4677 117.367C-21.4677 121.086 -24.4837 124.122 -28.2227 124.122C-31.941 124.122 -34.9777 121.106 -34.9777 117.367C-34.9777 113.628 -31.941 110.612 -28.2227 110.612ZM-95.6693 110.612C-91.9509 110.612 -88.9143 113.628 -88.9143 117.367C-88.9143 121.086 -91.9303 124.122 -95.6693 124.122C-99.4082 124.122 -102.424 121.106 -102.424 117.367C-102.424 113.628 -99.4082 110.612 -95.6693 110.612ZM-61.9563 110.612C-58.238 110.612 -55.2013 113.628 -55.2013 117.367C-55.2013 121.086 -58.2173 124.122 -61.9563 124.122C-65.6746 124.122 -68.7113 121.106 -68.7113 117.367C-68.6906 113.628 -65.6746 110.612 -61.9563 110.612ZM-129.403 110.612C-125.685 110.612 -122.648 113.628 -122.648 117.367C-122.648 121.086 -125.664 124.122 -129.403 124.122C-133.142 124.122 -136.158 121.106 -136.158 117.367C-136.158 113.628 -133.121 110.612 -129.403 110.612ZM646.305 380.419C650.023 380.419 653.06 383.435 653.06 387.153C653.06 390.872 650.044 393.908 646.305 393.908C642.586 393.908 639.55 390.892 639.55 387.153C639.55 383.456 642.586 380.419 646.305 380.419ZM747.485 447.886C751.203 447.886 754.24 450.902 754.24 454.641C754.24 458.36 751.224 461.396 747.485 461.396C743.766 461.396 740.75 458.38 740.75 454.641C740.73 450.902 743.766 447.886 747.485 447.886ZM680.038 447.886C683.757 447.886 686.773 450.902 686.773 454.621C686.773 458.339 683.757 461.376 680.038 461.376C676.32 461.376 673.283 458.36 673.283 454.621C673.283 450.902 676.299 447.886 680.038 447.886ZM713.751 447.886C717.47 447.886 720.486 450.902 720.486 454.621C720.486 458.339 717.47 461.376 713.751 461.376C710.033 461.376 706.996 458.36 706.996 454.621C707.017 450.902 710.033 447.886 713.751 447.886ZM578.858 447.886C582.576 447.886 585.592 450.902 585.592 454.641C585.592 458.36 582.576 461.396 578.858 461.396C575.14 461.396 572.103 458.38 572.103 454.641C572.103 450.902 575.119 447.886 578.858 447.886ZM612.571 447.886C616.289 447.886 619.305 450.902 619.305 454.621C619.305 458.339 616.289 461.376 612.571 461.376C608.853 461.376 605.816 458.36 605.816 454.621C605.837 450.902 608.853 447.886 612.571 447.886ZM646.305 447.886C650.023 447.886 653.06 450.902 653.06 454.621C653.06 458.339 650.044 461.376 646.305 461.376C642.586 461.376 639.55 458.36 639.55 454.621C639.55 450.902 642.586 447.886 646.305 447.886ZM578.858 481.599C582.576 481.599 585.613 484.615 585.613 488.333C585.613 492.052 582.597 495.089 578.858 495.089C575.14 495.089 572.103 492.072 572.103 488.333C572.103 484.615 575.119 481.599 578.858 481.599ZM612.571 481.599C616.289 481.599 619.305 484.615 619.305 488.333C619.305 492.052 616.289 495.089 612.571 495.089C608.853 495.089 605.816 492.072 605.816 488.333C605.837 484.615 608.853 481.599 612.571 481.599ZM646.305 481.599C650.023 481.599 653.06 484.615 653.06 488.333C653.06 492.052 650.044 495.089 646.305 495.089C642.586 495.089 639.55 492.072 639.55 488.333C639.55 484.615 642.566 481.599 646.305 481.599ZM747.485 414.153C751.203 414.153 754.24 417.169 754.24 420.887C754.24 424.605 751.224 427.642 747.485 427.642C743.766 427.642 740.75 424.626 740.75 420.887C740.73 417.169 743.766 414.153 747.485 414.153ZM680.018 414.153C683.736 414.153 686.773 417.169 686.773 420.908C686.773 424.626 683.757 427.663 680.018 427.663C676.299 427.663 673.283 424.647 673.283 420.908C673.283 417.169 676.299 414.153 680.018 414.153ZM713.751 414.153C717.47 414.153 720.486 417.169 720.486 420.908C720.486 424.626 717.47 427.663 713.751 427.663C710.033 427.663 706.996 424.647 706.996 420.908C707.017 417.169 710.033 414.153 713.751 414.153ZM578.858 414.153C582.576 414.153 585.613 417.169 585.613 420.887C585.613 424.605 582.597 427.642 578.858 427.642C575.14 427.642 572.103 424.626 572.103 420.887C572.103 417.169 575.119 414.153 578.858 414.153ZM612.571 414.153C616.289 414.153 619.305 417.169 619.305 420.908C619.305 424.626 616.289 427.663 612.571 427.663C608.853 427.663 605.816 424.647 605.816 420.908C605.837 417.169 608.853 414.153 612.571 414.153ZM646.305 414.153C650.023 414.153 653.06 417.169 653.06 420.908C653.06 424.626 650.044 427.663 646.305 427.663C642.586 427.663 639.55 424.647 639.55 420.908C639.55 417.169 642.566 414.153 646.305 414.153ZM747.485 380.419C751.203 380.419 754.24 383.435 754.24 387.153C754.24 390.872 751.224 393.908 747.485 393.908C743.766 393.908 740.75 390.892 740.75 387.153C740.73 383.456 743.766 380.419 747.485 380.419ZM680.038 380.419C683.757 380.419 686.773 383.435 686.773 387.174C686.773 390.892 683.757 393.908 680.038 393.908C676.32 393.908 673.283 390.892 673.283 387.174C673.283 383.456 676.299 380.419 680.038 380.419ZM713.751 380.419C717.47 380.419 720.486 383.435 720.486 387.174C720.486 390.892 717.47 393.908 713.751 393.908C710.033 393.908 706.996 390.892 706.996 387.174C707.017 383.456 710.033 380.419 713.751 380.419ZM578.858 380.419C582.576 380.419 585.592 383.435 585.592 387.153C585.592 390.872 582.576 393.908 578.858 393.908C575.14 393.908 572.103 390.892 572.103 387.153C572.103 383.456 575.119 380.419 578.858 380.419ZM612.571 380.419C616.289 380.419 619.305 383.435 619.305 387.153C619.305 390.872 616.289 393.908 612.571 393.908C608.853 393.908 605.816 390.892 605.816 387.153C605.837 383.456 608.853 380.419 612.571 380.419ZM5.49023 380.419C9.20857 380.419 12.2452 383.435 12.2452 387.174C12.2452 390.892 9.22923 393.929 5.49023 393.929C1.77189 393.929 -1.26476 390.913 -1.26476 387.174C-1.2441 383.435 1.77189 380.419 5.49023 380.419ZM207.85 447.866C211.569 447.866 214.605 450.882 214.605 454.6C214.605 458.318 211.589 461.355 207.85 461.355C204.132 461.355 201.096 458.339 201.096 454.6C201.116 450.902 204.132 447.866 207.85 447.866ZM207.85 515.333C211.569 515.333 214.605 518.349 214.605 522.088C214.605 525.806 211.589 528.843 207.85 528.843C204.132 528.843 201.096 525.827 201.096 522.088C201.116 518.349 204.132 515.333 207.85 515.333ZM207.85 549.046C211.569 549.046 214.605 552.062 214.605 555.78C214.605 559.498 211.589 562.535 207.85 562.535C204.132 562.535 201.096 559.519 201.096 555.78C201.116 552.082 204.132 549.046 207.85 549.046ZM207.85 481.599C211.569 481.599 214.605 484.615 214.605 488.333C214.605 492.052 211.589 495.089 207.85 495.089C204.132 495.089 201.096 492.072 201.096 488.333C201.116 484.615 204.132 481.599 207.85 481.599ZM207.85 414.153C211.569 414.153 214.605 417.169 214.605 420.908C214.605 424.626 211.589 427.642 207.85 427.642C204.132 427.642 201.096 424.626 201.096 420.908C201.116 417.169 204.132 414.153 207.85 414.153ZM207.85 380.419C211.569 380.419 214.605 383.435 214.605 387.174C214.605 390.892 211.589 393.908 207.85 393.908C204.132 393.908 201.096 390.892 201.096 387.174C201.116 383.435 204.132 380.419 207.85 380.419ZM511.391 447.886C515.109 447.886 518.146 450.902 518.146 454.641C518.146 458.36 515.13 461.396 511.391 461.396C507.673 461.396 504.636 458.38 504.636 454.641C504.657 450.902 507.673 447.886 511.391 447.886ZM545.125 447.886C548.843 447.886 551.879 450.902 551.879 454.641C551.879 458.36 548.864 461.396 545.125 461.396C541.406 461.396 538.37 458.38 538.37 454.641C538.37 450.902 541.406 447.886 545.125 447.886ZM443.944 447.886C447.663 447.886 450.699 450.902 450.699 454.641C450.699 458.36 447.683 461.376 443.944 461.376C440.226 461.376 437.189 458.36 437.189 454.641C437.189 450.902 440.226 447.886 443.944 447.886ZM477.678 447.886C481.396 447.886 484.433 450.902 484.433 454.641C484.433 458.36 481.417 461.376 477.678 461.376C473.96 461.376 470.944 458.36 470.944 454.641C470.923 450.902 473.939 447.886 477.678 447.886ZM376.498 447.886C380.216 447.886 383.253 450.902 383.253 454.621C383.253 458.339 380.237 461.376 376.498 461.376C372.78 461.376 369.764 458.36 369.764 454.621C369.743 450.902 372.759 447.886 376.498 447.886ZM410.211 447.886C413.929 447.886 416.945 450.902 416.945 454.621C416.945 458.339 413.929 461.376 410.211 461.376C406.492 461.376 403.456 458.36 403.456 454.621C403.476 450.902 406.492 447.886 410.211 447.886ZM309.031 447.866C312.749 447.866 315.765 450.882 315.765 454.621C315.765 458.339 312.749 461.376 309.031 461.376C305.312 461.376 302.276 458.36 302.276 454.621C302.296 450.902 305.312 447.866 309.031 447.866ZM342.764 447.866C346.483 447.866 349.499 450.882 349.499 454.621C349.499 458.339 346.483 461.376 342.764 461.376C339.046 461.376 336.009 458.36 336.009 454.621C336.009 450.902 339.046 447.866 342.764 447.866ZM241.584 447.866C245.302 447.866 248.339 450.882 248.339 454.621C248.339 458.339 245.323 461.355 241.584 461.355C237.866 461.355 234.829 458.339 234.829 454.621C234.85 450.902 237.866 447.866 241.584 447.866ZM275.318 447.866C279.036 447.866 282.073 450.882 282.073 454.621C282.073 458.339 279.057 461.355 275.318 461.355C271.599 461.355 268.563 458.339 268.563 454.621C268.563 450.902 271.579 447.866 275.318 447.866ZM174.138 447.866C177.856 447.866 180.893 450.882 180.893 454.6C180.893 458.318 177.877 461.355 174.138 461.355C170.419 461.355 167.383 458.339 167.383 454.6C167.383 450.902 170.399 447.866 174.138 447.866ZM106.67 447.866C110.389 447.866 113.425 450.882 113.425 454.621C113.425 458.339 110.409 461.355 106.67 461.355C102.952 461.355 99.9154 458.339 99.9154 454.621C99.936 450.902 102.952 447.866 106.67 447.866ZM140.404 447.866C144.122 447.866 147.159 450.882 147.159 454.621C147.159 458.339 144.143 461.355 140.404 461.355C136.686 461.355 133.649 458.339 133.649 454.621C133.67 450.902 136.686 447.866 140.404 447.866ZM72.9574 447.866C76.6758 447.866 79.7124 450.882 79.7124 454.621C79.7124 458.339 76.6964 461.355 72.9574 461.355C69.2391 461.355 66.2024 458.339 66.2024 454.621C66.2024 450.902 69.2391 447.866 72.9574 447.866ZM443.944 515.333C447.663 515.333 450.699 518.349 450.699 522.088C450.699 525.806 447.683 528.843 443.944 528.843C440.226 528.843 437.189 525.827 437.189 522.088C437.189 518.349 440.226 515.333 443.944 515.333ZM477.678 515.333C481.396 515.333 484.433 518.349 484.433 522.088C484.433 525.806 481.417 528.843 477.678 528.843C473.96 528.843 470.944 525.827 470.944 522.088C470.923 518.349 473.939 515.333 477.678 515.333ZM376.498 515.333C380.216 515.333 383.253 518.349 383.253 522.088C383.253 525.806 380.237 528.843 376.498 528.843C372.78 528.843 369.764 525.827 369.764 522.088C369.743 518.349 372.759 515.333 376.498 515.333ZM410.211 515.333C413.929 515.333 416.945 518.349 416.945 522.088C416.945 525.806 413.929 528.843 410.211 528.843C406.492 528.843 403.456 525.827 403.456 522.088C403.476 518.349 406.492 515.333 410.211 515.333ZM309.031 515.333C312.749 515.333 315.765 518.349 315.765 522.088C315.765 525.806 312.749 528.822 309.031 528.822C305.312 528.822 302.276 525.806 302.276 522.088C302.296 518.349 305.312 515.333 309.031 515.333ZM342.764 515.333C346.483 515.333 349.499 518.349 349.499 522.088C349.499 525.806 346.483 528.822 342.764 528.822C339.046 528.822 336.009 525.806 336.009 522.088C336.009 518.349 339.046 515.333 342.764 515.333ZM241.584 515.333C245.302 515.333 248.339 518.349 248.339 522.088C248.339 525.806 245.323 528.822 241.584 528.822C237.866 528.822 234.829 525.806 234.829 522.088C234.85 518.349 237.866 515.333 241.584 515.333ZM275.318 515.333C279.036 515.333 282.073 518.349 282.073 522.088C282.073 525.806 279.057 528.822 275.318 528.822C271.599 528.822 268.563 525.806 268.563 522.088C268.563 518.349 271.579 515.333 275.318 515.333ZM174.138 515.333C177.856 515.333 180.893 518.349 180.893 522.088C180.893 525.806 177.877 528.843 174.138 528.843C170.419 528.843 167.383 525.827 167.383 522.088C167.383 518.349 170.399 515.333 174.138 515.333ZM140.404 515.333C144.122 515.333 147.159 518.349 147.159 522.088C147.159 525.806 144.143 528.822 140.404 528.822C136.686 528.822 133.649 525.806 133.649 522.088C133.67 518.349 136.686 515.333 140.404 515.333ZM376.498 582.779C380.216 582.779 383.253 585.795 383.253 589.534C383.253 593.253 380.237 596.269 376.498 596.269C372.78 596.269 369.764 593.253 369.764 589.534C369.743 585.795 372.759 582.779 376.498 582.779ZM309.031 582.779C312.749 582.779 315.765 585.795 315.765 589.514C315.765 593.232 312.749 596.269 309.031 596.269C305.312 596.269 302.276 593.253 302.276 589.514C302.296 585.795 305.312 582.779 309.031 582.779ZM342.764 582.779C346.483 582.779 349.499 585.795 349.499 589.514C349.499 593.232 346.483 596.269 342.764 596.269C339.046 596.269 336.009 593.253 336.009 589.514C336.009 585.795 339.046 582.779 342.764 582.779ZM174.138 582.779C177.856 582.779 180.893 585.795 180.893 589.534C180.893 593.253 177.877 596.269 174.138 596.269C170.419 596.269 167.383 593.253 167.383 589.534C167.383 585.795 170.399 582.779 174.138 582.779ZM376.498 549.046C380.216 549.046 383.253 552.062 383.253 555.801C383.253 559.519 380.237 562.556 376.498 562.556C372.78 562.556 369.764 559.54 369.764 555.801C369.743 552.082 372.759 549.046 376.498 549.046ZM410.211 549.046C413.929 549.046 416.966 552.062 416.966 555.801C416.966 559.519 413.95 562.556 410.211 562.556C406.492 562.556 403.476 559.54 403.476 555.801C403.476 552.082 406.492 549.046 410.211 549.046ZM309.031 549.046C312.749 549.046 315.765 552.062 315.765 555.801C315.765 559.519 312.749 562.556 309.031 562.556C305.312 562.556 302.276 559.54 302.276 555.801C302.296 552.082 305.312 549.046 309.031 549.046ZM342.764 549.046C346.483 549.046 349.499 552.062 349.499 555.801C349.499 559.519 346.483 562.556 342.764 562.556C339.046 562.556 336.009 559.54 336.009 555.801C336.009 552.082 339.046 549.046 342.764 549.046ZM241.584 549.046C245.302 549.046 248.339 552.062 248.339 555.78C248.339 559.498 245.323 562.535 241.584 562.535C237.866 562.535 234.829 559.519 234.829 555.78C234.85 552.082 237.866 549.046 241.584 549.046ZM275.318 549.046C279.036 549.046 282.073 552.062 282.073 555.78C282.073 559.498 279.057 562.535 275.318 562.535C271.599 562.535 268.563 559.519 268.563 555.78C268.563 552.082 271.579 549.046 275.318 549.046ZM174.138 549.046C177.856 549.046 180.893 552.062 180.893 555.78C180.893 559.498 177.877 562.535 174.138 562.535C170.419 562.535 167.383 559.519 167.383 555.78C167.383 552.082 170.399 549.046 174.138 549.046ZM140.404 549.046C144.122 549.046 147.159 552.062 147.159 555.801C147.159 559.519 144.143 562.556 140.404 562.556C136.686 562.556 133.649 559.54 133.649 555.801C133.67 552.062 136.686 549.046 140.404 549.046ZM511.391 481.599C515.109 481.599 518.125 484.615 518.125 488.333C518.125 492.052 515.109 495.089 511.391 495.089C507.673 495.089 504.636 492.072 504.636 488.333C504.657 484.615 507.673 481.599 511.391 481.599ZM545.125 481.599C548.843 481.599 551.879 484.615 551.879 488.333C551.879 492.052 548.864 495.089 545.125 495.089C541.406 495.089 538.37 492.072 538.37 488.333C538.37 484.615 541.406 481.599 545.125 481.599ZM443.944 481.599C447.663 481.599 450.699 484.615 450.699 488.354C450.699 492.072 447.683 495.089 443.944 495.089C440.226 495.089 437.189 492.072 437.189 488.354C437.189 484.615 440.226 481.599 443.944 481.599ZM477.678 481.599C481.396 481.599 484.433 484.615 484.433 488.354C484.433 492.072 481.417 495.089 477.678 495.089C473.96 495.089 470.944 492.072 470.944 488.354C470.923 484.615 473.939 481.599 477.678 481.599ZM376.498 481.599C380.216 481.599 383.253 484.615 383.253 488.333C383.253 492.052 380.237 495.089 376.498 495.089C372.78 495.089 369.764 492.072 369.764 488.333C369.743 484.615 372.759 481.599 376.498 481.599ZM410.211 481.599C413.929 481.599 416.966 484.615 416.966 488.333C416.966 492.052 413.95 495.089 410.211 495.089C406.492 495.089 403.476 492.072 403.476 488.333C403.476 484.615 406.492 481.599 410.211 481.599ZM309.031 481.599C312.749 481.599 315.765 484.615 315.765 488.333C315.765 492.052 312.749 495.089 309.031 495.089C305.312 495.089 302.276 492.072 302.276 488.333C302.296 484.615 305.312 481.599 309.031 481.599ZM342.764 481.599C346.483 481.599 349.499 484.615 349.499 488.333C349.499 492.052 346.483 495.089 342.764 495.089C339.046 495.089 336.009 492.072 336.009 488.333C336.009 484.615 339.046 481.599 342.764 481.599ZM241.584 481.599C245.302 481.599 248.339 484.615 248.339 488.354C248.339 492.093 245.323 495.109 241.584 495.109C237.866 495.109 234.829 492.093 234.829 488.354C234.829 484.615 237.866 481.599 241.584 481.599ZM275.318 481.599C279.036 481.599 282.073 484.615 282.073 488.354C282.073 492.093 279.057 495.109 275.318 495.109C271.599 495.109 268.563 492.093 268.563 488.354C268.563 484.615 271.579 481.599 275.318 481.599ZM174.138 481.599C177.856 481.599 180.893 484.615 180.893 488.333C180.893 492.052 177.877 495.089 174.138 495.089C170.419 495.089 167.383 492.072 167.383 488.333C167.383 484.615 170.399 481.599 174.138 481.599ZM106.67 481.599C110.389 481.599 113.425 484.615 113.425 488.333C113.425 492.052 110.409 495.089 106.67 495.089C102.952 495.089 99.9154 492.072 99.9154 488.333C99.936 484.615 102.952 481.599 106.67 481.599ZM140.404 481.599C144.122 481.599 147.159 484.615 147.159 488.333C147.159 492.052 144.143 495.089 140.404 495.089C136.686 495.089 133.649 492.072 133.649 488.333C133.67 484.615 136.686 481.599 140.404 481.599ZM511.391 414.153C515.109 414.153 518.125 417.169 518.125 420.887C518.125 424.605 515.109 427.642 511.391 427.642C507.673 427.642 504.636 424.626 504.636 420.887C504.657 417.169 507.673 414.153 511.391 414.153ZM545.125 414.153C548.843 414.153 551.879 417.169 551.879 420.887C551.879 424.605 548.864 427.642 545.125 427.642C541.406 427.642 538.37 424.626 538.37 420.887C538.37 417.169 541.406 414.153 545.125 414.153ZM443.944 414.153C447.663 414.153 450.699 417.169 450.699 420.908C450.699 424.626 447.683 427.663 443.944 427.663C440.226 427.663 437.189 424.647 437.189 420.908C437.189 417.169 440.226 414.153 443.944 414.153ZM477.678 414.153C481.396 414.153 484.433 417.169 484.433 420.908C484.433 424.626 481.417 427.663 477.678 427.663C473.96 427.663 470.944 424.647 470.944 420.908C470.923 417.169 473.939 414.153 477.678 414.153ZM376.498 414.153C380.216 414.153 383.253 417.169 383.253 420.908C383.253 424.626 380.237 427.663 376.498 427.663C372.78 427.663 369.764 424.647 369.764 420.908C369.743 417.169 372.759 414.153 376.498 414.153ZM410.211 414.153C413.929 414.153 416.966 417.169 416.966 420.908C416.966 424.626 413.95 427.663 410.211 427.663C406.492 427.663 403.476 424.647 403.476 420.908C403.476 417.169 406.492 414.153 410.211 414.153ZM309.031 414.153C312.749 414.153 315.786 417.169 315.786 420.887C315.786 424.605 312.77 427.642 309.031 427.642C305.312 427.642 302.296 424.626 302.296 420.887C302.296 417.169 305.312 414.153 309.031 414.153ZM342.764 414.153C346.483 414.153 349.499 417.169 349.499 420.887C349.499 424.605 346.483 427.642 342.764 427.642C339.046 427.642 336.009 424.626 336.009 420.887C336.009 417.169 339.046 414.153 342.764 414.153ZM241.584 414.153C245.302 414.153 248.339 417.169 248.339 420.887C248.339 424.605 245.323 427.642 241.584 427.642C237.866 427.642 234.829 424.626 234.829 420.887C234.85 417.169 237.866 414.153 241.584 414.153ZM275.318 414.153C279.036 414.153 282.073 417.169 282.073 420.887C282.073 424.605 279.057 427.642 275.318 427.642C271.599 427.642 268.563 424.626 268.563 420.887C268.563 417.169 271.579 414.153 275.318 414.153ZM174.138 414.153C177.856 414.153 180.893 417.169 180.893 420.908C180.893 424.626 177.877 427.642 174.138 427.642C170.419 427.642 167.383 424.626 167.383 420.908C167.383 417.169 170.399 414.153 174.138 414.153ZM106.67 414.153C110.389 414.153 113.425 417.169 113.425 420.908C113.425 424.626 110.409 427.642 106.67 427.642C102.952 427.642 99.9154 424.626 99.9154 420.908C99.936 417.169 102.952 414.153 106.67 414.153ZM140.404 414.153C144.122 414.153 147.159 417.169 147.159 420.908C147.159 424.626 144.143 427.642 140.404 427.642C136.686 427.642 133.649 424.626 133.649 420.908C133.67 417.169 136.686 414.153 140.404 414.153ZM39.2238 414.153C42.9422 414.153 45.9788 417.169 45.9788 420.908C45.9788 424.647 42.9628 427.663 39.2238 427.663C35.5055 427.663 32.4688 424.647 32.4688 420.908C32.4688 417.169 35.5055 414.153 39.2238 414.153ZM72.9574 414.153C76.6758 414.153 79.7124 417.169 79.7124 420.908C79.7124 424.647 76.6964 427.663 72.9574 427.663C69.2391 427.663 66.2024 424.647 66.2024 420.908C66.2024 417.169 69.2184 414.153 72.9574 414.153ZM511.391 380.419C515.109 380.419 518.146 383.435 518.146 387.153C518.146 390.872 515.13 393.908 511.391 393.908C507.673 393.908 504.636 390.892 504.636 387.153C504.657 383.456 507.673 380.419 511.391 380.419ZM545.125 380.419C548.843 380.419 551.879 383.435 551.879 387.153C551.879 390.872 548.864 393.908 545.125 393.908C541.406 393.908 538.37 390.892 538.37 387.153C538.37 383.456 541.406 380.419 545.125 380.419ZM443.944 380.419C447.663 380.419 450.699 383.435 450.699 387.174C450.699 390.892 447.683 393.929 443.944 393.929C440.226 393.929 437.189 390.913 437.189 387.174C437.189 383.456 440.226 380.419 443.944 380.419ZM477.678 380.419C481.396 380.419 484.433 383.435 484.433 387.174C484.433 390.892 481.417 393.929 477.678 393.929C473.96 393.929 470.944 390.913 470.944 387.174C470.923 383.456 473.939 380.419 477.678 380.419ZM376.498 380.419C380.216 380.419 383.253 383.435 383.253 387.174C383.253 390.892 380.237 393.908 376.498 393.908C372.78 393.908 369.764 390.892 369.764 387.174C369.743 383.435 372.759 380.419 376.498 380.419ZM410.211 380.419C413.929 380.419 416.945 383.435 416.945 387.174C416.945 390.892 413.929 393.908 410.211 393.908C406.492 393.908 403.456 390.892 403.456 387.174C403.476 383.435 406.492 380.419 410.211 380.419ZM309.031 380.419C312.749 380.419 315.765 383.435 315.765 387.153C315.765 390.872 312.749 393.908 309.031 393.908C305.312 393.908 302.276 390.892 302.276 387.153C302.296 383.435 305.312 380.419 309.031 380.419ZM342.764 380.419C346.483 380.419 349.499 383.435 349.499 387.153C349.499 390.872 346.483 393.908 342.764 393.908C339.046 393.908 336.009 390.892 336.009 387.153C336.009 383.435 339.046 380.419 342.764 380.419ZM241.584 380.419C245.302 380.419 248.339 383.435 248.339 387.174C248.339 390.892 245.323 393.908 241.584 393.908C237.866 393.908 234.829 390.892 234.829 387.174C234.85 383.435 237.866 380.419 241.584 380.419ZM275.318 380.419C279.036 380.419 282.073 383.435 282.073 387.174C282.073 390.892 279.057 393.908 275.318 393.908C271.599 393.908 268.563 390.892 268.563 387.174C268.563 383.435 271.579 380.419 275.318 380.419ZM174.138 380.419C177.856 380.419 180.893 383.435 180.893 387.174C180.893 390.892 177.877 393.908 174.138 393.908C170.419 393.908 167.383 390.892 167.383 387.174C167.383 383.435 170.399 380.419 174.138 380.419ZM106.67 380.419C110.389 380.419 113.425 383.435 113.425 387.174C113.425 390.892 110.409 393.929 106.67 393.929C102.952 393.929 99.9154 390.913 99.9154 387.174C99.936 383.435 102.952 380.419 106.67 380.419ZM140.404 380.419C144.122 380.419 147.159 383.435 147.159 387.174C147.159 390.892 144.143 393.929 140.404 393.929C136.686 393.929 133.649 390.913 133.649 387.174C133.67 383.435 136.686 380.419 140.404 380.419ZM39.2238 380.419C42.9422 380.419 45.9788 383.435 45.9788 387.174C45.9788 390.892 42.9628 393.929 39.2238 393.929C35.5055 393.929 32.4688 390.913 32.4688 387.174C32.4895 383.435 35.5055 380.419 39.2238 380.419ZM72.9574 380.419C76.6758 380.419 79.7124 383.435 79.7124 387.174C79.7124 390.892 76.6964 393.929 72.9574 393.929C69.2391 393.929 66.2024 390.913 66.2024 387.174C66.2024 383.435 69.2391 380.419 72.9574 380.419Z" fill="#FBAF43" fill-opacity="0.16"/>
<path fill-rule="evenodd" clip-rule="evenodd" d="M-75.4456 49.9C-75.4456 38.7244 -84.5142 29.6558 -95.6899 29.6558C-106.866 29.6558 -115.934 38.7244 -115.934 49.9C-115.934 61.0757 -106.866 70.1443 -95.6899 70.1443C-84.5142 70.1443 -75.4456 61.0757 -75.4456 49.9ZM120.16 -84.993C120.16 -73.8173 129.228 -64.7487 140.404 -64.7487C151.58 -64.7487 160.648 -73.8173 160.648 -84.993C160.648 -96.1687 151.58 -105.237 140.404 -105.237C129.228 -105.237 120.16 -96.1687 120.16 -84.993ZM72.9574 63.3894C80.4148 63.3894 86.4467 57.3574 86.4467 49.9C86.4467 42.4427 80.4148 36.4107 72.9574 36.4107C65.5001 36.4107 59.4681 42.4427 59.4681 49.9C59.4681 57.3574 65.5001 63.3894 72.9574 63.3894ZM309.031 205.037C320.206 205.037 329.275 195.969 329.275 184.793C329.275 173.617 320.206 164.549 309.031 164.549C297.855 164.549 288.786 173.617 288.786 184.793C288.807 195.989 297.855 205.037 309.031 205.037ZM558.614 353.44C558.614 364.616 567.682 373.685 578.858 373.685C590.034 373.685 599.082 364.616 599.082 353.44C599.082 342.265 590.013 333.217 578.858 333.217C567.682 333.217 558.614 342.265 558.614 353.44ZM389.987 488.354C389.987 499.53 399.056 508.599 410.231 508.599C421.407 508.599 430.476 499.53 430.476 488.354C430.476 477.179 421.407 468.11 410.231 468.11C399.035 468.11 389.987 477.179 389.987 488.354ZM194.361 589.534C194.361 578.359 185.293 569.29 174.117 569.29C162.941 569.29 153.873 578.359 153.873 589.534C153.873 600.71 162.941 609.779 174.117 609.779C185.313 609.758 194.361 600.689 194.361 589.534ZM207.85 474.865C200.393 474.865 194.361 480.897 194.361 488.354C194.361 495.812 200.393 501.844 207.85 501.844C215.308 501.844 221.34 495.812 221.34 488.354C221.34 480.897 215.308 474.865 207.85 474.865ZM72.9574 333.196C61.7818 333.196 52.7131 342.265 52.7131 353.44C52.7131 364.616 61.7818 373.685 72.9574 373.685C84.1331 373.685 93.2017 364.616 93.2017 353.44C93.181 342.265 84.1331 333.196 72.9574 333.196ZM39.2238 205.037C31.7665 205.037 25.7345 211.069 25.7345 218.527C25.7345 225.984 31.7665 232.016 39.2238 232.016C46.6812 232.016 52.7131 225.984 52.7131 218.527C52.7131 211.09 46.6812 205.037 39.2238 205.037Z" fill="#FBAF43" fill-opacity="0.25"/>
<g clip-path="url(#clip1_2605_2737)">
<path d="M64.7356 171.407C67.1856 167.531 70.8242 164.686 75.4088 163.102L77.1493 169.902C70.1904 172.511 67.5039 180.027 67.977 184.058C68.3711 186.906 70.5058 189.514 72.4039 189.514H103.872C106.719 189.514 109.803 186.43 109.803 183.582C109.803 180.812 106.719 177.412 103.872 177.412H91.9341C90.3543 177.412 89.008 176.463 88.2985 174.804C87.4283 172.59 87.7436 168.792 88.2985 166.263C88.9322 163.336 90.3543 159.144 93.6745 156.06C96.2034 153.688 99.3659 152.262 102.926 152.026C106.325 151.789 110.121 152.499 114.233 154.161L111.307 160.488C106.009 158.431 101.819 158.431 99.0506 160.567C96.361 162.702 95.3331 166.26 95.0178 168.237L94.6236 170.451H103.796C110.436 170.451 116.683 176.936 116.683 183.579C116.683 190.3 110.436 196.469 103.796 196.469H72.2462C69.6386 196.469 67.1856 195.362 65.4481 193.621C63.4712 191.722 61.4942 188.086 61.1 184.843C60.5451 180.661 62.3644 175.204 64.7356 171.407Z" fill="#2B2B2B"/>
<path d="M85.8455 203.278C85.8455 205.571 84.0262 207.47 81.7339 207.47C79.4416 207.47 77.5435 205.571 77.5435 203.278C77.5435 200.985 79.4416 199.087 81.7339 199.087C84.0292 199.087 85.8455 200.985 85.8455 203.278Z" fill="#FBAF43"/>
<path d="M97.8649 203.278C97.8649 205.571 96.0456 207.47 93.7533 207.47C91.461 207.47 89.5629 205.571 89.5629 203.278C89.5629 200.985 91.461 199.087 93.7533 199.087C96.0456 199.087 97.8649 200.985 97.8649 203.278Z" fill="#FBAF43"/>
<path d="M160.321 163.421V177.103H174.633V183.824H123.557V177.103H153.363V164.922C153.363 160.888 150.121 157.567 146.01 157.567H130.67V150.688H147.511C154.548 150.688 160.321 156.381 160.321 163.421Z" fill="#2B2B2B"/>
<path d="M187.044 148.474H194.081V176.39C194.081 180.503 190.761 183.824 186.65 183.824H170.837V177.103H187.044V148.474Z" fill="#2B2B2B"/>
<path d="M181.983 192.05C181.983 194.343 180.085 196.242 177.793 196.242C175.5 196.242 173.602 194.343 173.602 192.05C173.602 189.757 175.5 187.858 177.793 187.858C180.085 187.858 181.983 189.757 181.983 192.05Z" fill="#FBAF43"/>
<path d="M193.051 192.05C193.051 194.343 191.152 196.242 188.86 196.242C186.568 196.242 184.67 194.343 184.67 192.05C184.67 189.757 186.568 187.858 188.86 187.858C191.152 187.858 193.051 189.757 193.051 192.05Z" fill="#FBAF43"/>
<path d="M212.184 134V177.103H226.256V183.824H212.499C208.387 183.824 205.067 180.503 205.067 176.39V134H212.184Z" fill="#2B2B2B"/>
<path d="M257.326 183.824H221.514V177.103H236.929V148.474H244.046V177.103H257.326V183.824Z" fill="#2B2B2B"/>
<path d="M244.597 138.905C244.597 141.198 242.778 143.096 240.486 143.096C238.193 143.096 236.295 141.198 236.295 138.905C236.295 136.612 238.193 134.713 240.486 134.713C242.781 134.713 244.597 136.609 244.597 138.905Z" fill="#FBAF43"/>
<path d="M321.208 171.962C321.208 178.526 315.911 183.824 309.27 183.824H304.686C301.287 183.824 298.124 182.402 296.781 180.976L295.595 180.027L294.41 180.976C293.066 182.399 289.904 183.824 286.344 183.824H252.978V177.103H269.819V148.868H277.172V177.103H286.581C289.586 177.103 292.036 174.652 292.036 171.647V148.789H299.152V171.804C299.152 174.731 301.523 177.103 304.607 177.103H308.482C311.487 177.103 313.858 174.652 313.858 171.725V148.789H321.211V171.962H321.208Z" fill="#2B2B2B"/>
<path d="M76.2457 219.527C74.863 219.527 73.7623 219.872 72.9497 220.564C72.134 221.255 71.7277 222.171 71.7277 223.312C71.7277 224.616 72.225 225.602 73.2226 226.272C74.2202 226.942 76.2244 227.728 79.2354 228.623C83.3045 229.927 86.1942 231.392 87.9043 233.021C89.6145 234.65 90.4695 236.909 90.4695 239.8C90.4695 242.893 89.3294 245.356 87.0523 247.188C84.7721 249.02 81.7824 249.936 78.0771 249.936C76.4913 249.936 74.6902 249.721 72.6738 249.296C70.6604 248.869 69.3657 248.656 68.7987 248.656C67.8617 248.656 66.8247 249.105 65.6846 250L65.0145 238.826H65.1358C68.7168 245.544 73.0316 248.902 78.0771 248.902C79.6235 248.902 80.8758 248.526 81.8309 247.774C82.786 247.021 83.2651 245.933 83.2651 244.507C83.2651 243.897 83.1438 243.357 82.8982 242.887C82.6526 242.42 82.3797 242.032 82.0735 241.726C81.7672 241.419 81.2396 241.095 80.4876 240.749C79.7326 240.403 79.0929 240.148 78.5653 239.985C78.0346 239.824 77.1826 239.557 76 239.19C72.1735 238.01 69.4172 236.563 67.7283 234.856C66.0394 233.145 65.1934 230.846 65.1934 227.955C65.1934 225.147 66.2395 222.866 68.3378 221.116C70.433 219.366 73.0679 218.489 76.2426 218.489C77.6677 218.489 79.2657 218.732 81.0334 219.223C82.8042 219.712 83.9928 219.957 84.6053 219.957C85.6635 219.957 86.8036 219.448 88.0226 218.432V228.326H87.9013C86.558 225.681 84.8176 223.551 82.6829 221.944C80.5513 220.33 78.4046 219.527 76.2457 219.527Z" fill="#FBAF43"/>
<path d="M127.832 246.946V247.067C126.161 248.938 123.702 249.876 120.445 249.876C115.724 249.876 113.059 248.065 112.447 244.44C112.447 244.358 112.425 244.104 112.386 243.676C112.344 243.248 112.325 242.972 112.325 242.851C111.837 244.929 110.718 246.597 108.969 247.859C107.219 249.12 105.06 249.751 102.498 249.751C99.9329 249.751 97.7861 249.099 96.0578 247.798C94.3264 246.497 93.4623 244.601 93.4623 242.12C93.4623 240.776 93.7382 239.597 94.287 238.577C94.8359 237.561 95.4878 236.758 96.2397 236.166C96.9917 235.578 98.0924 235.026 99.5357 234.516C100.979 234.007 102.21 233.63 103.229 233.388C104.245 233.142 105.691 232.86 107.562 232.533L112.201 231.677V225.754C112.201 224.004 111.834 222.539 111.103 221.356C110.37 220.176 109.19 219.584 107.562 219.584C106.179 219.584 105.109 220.012 104.357 220.867C103.602 221.723 103.229 222.842 103.229 224.225C103.229 226.709 104.205 227.95 106.158 227.95C106.482 227.95 106.87 227.889 107.319 227.768C106.097 230.17 103.92 231.371 100.788 231.371C99.1597 231.371 97.7861 230.904 96.6673 229.967C95.5484 229.029 94.9875 227.789 94.9875 226.242C94.9875 223.922 96.1791 222.05 98.5593 220.625C100.94 219.199 104.045 218.486 107.868 218.486C112.995 218.486 116.813 219.333 119.314 221.022C121.816 222.711 123.068 225.429 123.068 229.175C123.068 230.355 123.047 232.25 123.008 234.853C122.965 237.458 122.947 239.515 122.947 241.019C122.947 243.218 123.18 244.795 123.65 245.751C124.117 246.709 125.045 247.185 126.428 247.185C126.998 247.191 127.465 247.109 127.832 246.946ZM112.204 232.778L109.639 233.388C105.934 234.122 104.084 236.482 104.084 240.473C104.084 242.059 104.39 243.303 105 244.198C105.609 245.092 106.485 245.541 107.626 245.541C109.008 245.541 110.109 244.941 110.921 243.74C111.734 242.539 112.143 241.043 112.143 239.251L112.204 232.778Z" fill="#2B2B2B"/>
<path d="M127.526 219.099H141.689V227.037C142.423 224.31 143.714 222.202 145.564 220.716C147.417 219.229 149.642 218.486 152.25 218.486C155.424 218.486 157.835 219.463 159.484 221.416C161.134 223.37 161.956 225.914 161.956 229.051V242.669C161.956 244.744 162.107 246.151 162.414 246.882C162.72 247.616 163.523 248.389 164.824 249.202V249.324H148.159V249.202C149.46 248.389 150.267 247.613 150.57 246.882C150.873 246.151 151.028 244.744 151.028 242.669V228.744C151.028 227.24 150.682 226.017 149.991 225.08C149.299 224.143 148.259 223.676 146.877 223.676C145.291 223.676 144.027 224.358 143.093 225.723C142.156 227.088 141.689 229.093 141.689 231.738V242.669C141.689 244.744 141.84 246.151 142.147 246.882C142.453 247.616 143.256 248.389 144.557 249.202V249.324H127.892V249.202C129.193 248.389 130 247.613 130.303 246.882C130.609 246.148 130.761 244.744 130.761 242.669V225.875C130.761 223.797 130.579 222.375 130.212 221.601C129.845 220.828 128.951 220.033 127.526 219.22V219.099Z" fill="#2B2B2B"/>
<path d="M201.334 246.946V247.067C199.664 248.938 197.205 249.876 193.948 249.876C189.227 249.876 186.562 248.065 185.949 244.44C185.949 244.358 185.928 244.104 185.889 243.676C185.846 243.248 185.828 242.972 185.828 242.851C185.34 244.929 184.221 246.597 182.471 247.859C180.722 249.12 178.563 249.751 176.001 249.751C173.435 249.751 171.289 249.099 169.56 247.798C167.829 246.497 166.965 244.601 166.965 242.12C166.965 240.776 167.241 239.597 167.79 238.577C168.338 237.561 168.99 236.758 169.742 236.166C170.494 235.578 171.595 235.026 173.038 234.516C174.482 234.007 175.713 233.63 176.731 233.388C177.747 233.142 179.194 232.86 181.064 232.533L185.704 231.677V225.754C185.704 224.004 185.337 222.539 184.606 221.356C183.872 220.176 182.693 219.584 181.064 219.584C179.682 219.584 178.611 220.012 177.859 220.867C177.104 221.723 176.731 222.842 176.731 224.225C176.731 226.709 177.708 227.95 179.661 227.95C179.985 227.95 180.373 227.889 180.822 227.768C179.6 230.17 177.423 231.371 174.291 231.371C172.662 231.371 171.289 230.904 170.17 229.967C169.051 229.029 168.49 227.789 168.49 226.242C168.49 223.922 169.682 222.05 172.062 220.625C174.442 219.199 177.547 218.486 181.371 218.486C186.498 218.486 190.316 219.333 192.817 221.022C195.319 222.711 196.571 225.429 196.571 229.175C196.571 230.355 196.55 232.25 196.51 234.853C196.468 237.458 196.45 239.515 196.45 241.019C196.45 243.218 196.683 244.795 197.153 245.751C197.62 246.709 198.548 247.185 199.931 247.185C200.498 247.191 200.968 247.109 201.334 246.946ZM185.704 232.778L183.138 233.388C179.433 234.122 177.583 236.482 177.583 240.473C177.583 242.059 177.89 243.303 178.499 244.198C179.109 245.092 179.985 245.541 181.125 245.541C182.508 245.541 183.608 244.941 184.421 243.74C185.234 242.539 185.643 241.043 185.643 239.251L185.704 232.778Z" fill="#2B2B2B"/>
<path d="M215.191 219.099V242.672C215.191 244.747 215.343 246.154 215.649 246.885C215.956 247.619 216.759 248.392 218.06 249.205V249.326H201.395V249.205C202.696 248.392 203.502 247.616 203.806 246.885C204.112 246.151 204.264 244.747 204.264 242.672V225.878C204.264 223.8 204.082 222.378 203.715 221.604C203.348 220.831 202.453 220.036 201.028 219.223V219.102H215.191V219.099ZM205.21 213.758C204.048 212.638 203.469 211.243 203.469 209.575C203.469 207.907 204.048 206.521 205.21 205.423C206.371 204.325 207.823 203.773 209.576 203.773C211.325 203.773 212.802 204.322 214.003 205.423C215.204 206.521 215.804 207.907 215.804 209.575C215.804 211.246 215.204 212.638 214.003 213.758C212.802 214.877 211.325 215.438 209.576 215.438C207.823 215.435 206.368 214.877 205.21 213.758Z" fill="#2B2B2B"/>
<path d="M243.272 225.329V210.367C243.272 208.374 243.027 206.948 242.539 206.093C242.05 205.238 241.074 204.443 239.609 203.712V203.591H254.2V242.675C254.2 244.628 254.361 245.993 254.688 246.767C255.013 247.54 255.829 248.353 257.129 249.208V249.33H243.272V241.756C242.581 244.158 241.338 246.124 239.549 247.649C237.757 249.175 235.58 249.939 233.018 249.939C229.394 249.939 226.344 248.526 223.86 245.696C221.377 242.866 220.137 239.154 220.137 234.552C220.137 229.748 221.45 225.872 224.076 222.921C226.702 219.969 229.946 218.492 233.812 218.492C236.213 218.492 238.227 219.102 239.855 220.324C241.48 221.544 242.62 223.212 243.272 225.329ZM237.532 245.602C239.118 245.602 240.474 244.838 241.593 243.312C242.711 241.786 243.272 239.842 243.272 237.479V230.518C243.272 227.831 242.702 225.653 241.562 223.985C240.422 222.317 239.039 221.483 237.411 221.483C233.585 221.483 231.671 225.838 231.671 234.552C231.671 238.095 232.181 240.822 233.196 242.736C234.215 244.647 235.662 245.602 237.532 245.602Z" fill="#2B2B2B"/>
<path d="M275.201 218.489C279.922 218.489 283.512 219.824 285.977 222.49C288.439 225.156 289.67 228.608 289.67 232.842H270.255C270.255 236.588 271.15 239.539 272.942 241.695C274.731 243.855 277.114 244.932 280.086 244.932C284.197 244.932 287.148 243.121 288.937 239.496L289.364 239.678C288.47 242.896 286.747 245.408 284.206 247.222C281.662 249.032 278.639 249.939 275.14 249.939C270.622 249.939 266.838 248.526 263.785 245.696C260.731 242.866 259.206 239.05 259.206 234.246C259.206 229.566 260.753 225.769 263.846 222.857C266.938 219.945 270.722 218.489 275.201 218.489ZM270.316 231.556H279.167C279.167 227.567 278.903 224.565 278.373 222.548C277.842 220.534 276.787 219.524 275.198 219.524C273.652 219.524 272.472 220.603 271.656 222.76C270.844 224.922 270.398 227.852 270.316 231.556Z" fill="#2B2B2B"/>
<path d="M308.533 218.489C313.255 218.489 316.845 219.824 319.31 222.49C321.772 225.156 323.003 228.608 323.003 232.842H303.588C303.588 236.588 304.482 239.539 306.275 241.695C308.063 243.855 310.447 244.932 313.418 244.932C317.53 244.932 320.48 243.121 322.269 239.496L322.697 239.678C321.802 242.896 320.08 245.408 317.539 247.222C314.995 249.032 311.972 249.939 308.473 249.939C303.955 249.939 300.171 248.526 297.117 245.696C294.064 242.866 292.539 239.05 292.539 234.246C292.539 229.566 294.085 225.769 297.178 222.857C300.271 219.945 304.055 218.489 308.533 218.489ZM303.649 231.556H312.5C312.5 227.567 312.236 224.565 311.705 222.548C311.174 220.534 310.119 219.524 308.53 219.524C306.984 219.524 305.805 220.603 304.989 222.76C304.176 224.922 303.731 227.852 303.649 231.556Z" fill="#2B2B2B"/>
</g>
</g>
<defs>
<clipPath id="clip0_2605_2737">
<rect width="384" height="384" fill="white"/>
</clipPath>
<clipPath id="clip1_2605_2737">
<rect width="262" height="116" fill="white" transform="translate(61 134)"/>
</clipPath>
</defs>
</svg>
